<svg xmlns="http://www.w3.org/2000/svg" xmlns:xlink="http://www.w3.org/1999/xlink" viewBox="0 0 324.83 268.23"><defs><linearGradient id="Áåçûìÿííûé_ãðàäèåíò_133" x1="54.91" y1="163.44" x2="72" y2="163.44" gradientTransform="matrix(-1, 0, 0, 1, 294.69, 0)" gradientUnits="userSpaceOnUse"><stop offset="0" stop-color="#ffeadb"/><stop offset="0.99" stop-color="#c245ba"/></linearGradient><linearGradient id="Áåçûìÿííûé_ãðàäèåíò_133-2" x1="58.75" y1="161.48" x2="65.42" y2="161.48" xlink:href="#Áåçûìÿííûé_ãðàäèåíò_133"/><linearGradient id="Áåçûìÿííûé_ãðàäèåíò_274" x1="29.51" y1="272.07" x2="40.75" y2="272.07" gradientTransform="matrix(-1, 0, 0, 1, 294.69, 0)" gradientUnits="userSpaceOnUse"><stop offset="0.02" stop-color="#ec6158"/><stop offset="1" stop-color="#ff6163"/></linearGradient><linearGradient id="Áåçûìÿííûé_ãðàäèåíò_286" x1="7.82" y1="212.33" x2="7.82" y2="168.91" gradientTransform="matrix(-1, 0, 0, 1, 294.69, 0)" gradientUnits="userSpaceOnUse"><stop offset="0.01" stop-color="#792c27"/><stop offset="0.99" stop-color="#54132f"/></linearGradient><linearGradient id="Áåçûìÿííûé_ãðàäèåíò_274-2" x1="15.52" y1="182.97" x2="17.5" y2="171.73" xlink:href="#Áåçûìÿííûé_ãðàäèåíò_274"/><linearGradient id="Áåçûìÿííûé_ãðàäèåíò_133-3" x1="115.99" y1="169.61" x2="115.99" y2="162.29" gradientTransform="matrix(-1, 0, 0, 1, 402.66, 0)" xlink:href="#Áåçûìÿííûé_ãðàäèåíò_133"/><linearGradient id="Áåçûìÿííûé_ãðàäèåíò_133-4" x1="117.09" y1="168.55" x2="117.09" y2="164.18" gradientTransform="matrix(-1, 0, 0, 1, 402.66, 0)" xlink:href="#Áåçûìÿííûé_ãðàäèåíò_133"/><linearGradient id="linear-gradient" x1="20.48" y1="271.36" x2="20.48" y2="179.06" gradientTransform="matrix(-1, 0, 0, 1, 294.69, 0)" gradientUnits="userSpaceOnUse"><stop offset="0" stop-color="#7c170c"/><stop offset="0.02" stop-color="#7d180c"/><stop offset="0.41" stop-color="#9a2305"/><stop offset="0.75" stop-color="#ab2a01"/><stop offset="1" stop-color="#b12c00"/></linearGradient><linearGradient id="Áåçûìÿííûé_ãðàäèåíò_153" x1="14.09" y1="253.69" x2="14.09" y2="246.79" gradientTransform="matrix(-1, 0, 0, 1, 294.69, 0)" gradientUnits="userSpaceOnUse"><stop offset="0.03" stop-color="#ffc9ac"/><stop offset="1" stop-color="#fff5c7"/></linearGradient><linearGradient id="Áåçûìÿííûé_ãðàäèåíò_153-2" x1="30.24" y1="252.39" x2="30.24" y2="245.5" xlink:href="#Áåçûìÿííûé_ãðàäèåíò_153"/><linearGradient id="Áåçûìÿííûé_ãðàäèåíò_153-3" x1="38.83" y1="261.59" x2="38.83" y2="254.73" xlink:href="#Áåçûìÿííûé_ãðàäèåíò_153"/><linearGradient id="Áåçûìÿííûé_ãðàäèåíò_153-4" x1="182.36" y1="340.82" x2="182.36" y2="333.92" gradientTransform="matrix(-0.81, -0.59, -0.59, 0.81, 623.2, 96.07)" xlink:href="#Áåçûìÿííûé_ãðàäèåíò_153"/><linearGradient id="Áåçûìÿííûé_ãðàäèåíò_153-5" x1="-20.22" y1="253.15" x2="-20.22" y2="246.26" gradientTransform="matrix(-0.66, 0.07, 0.1, 0.99, 252.78, 13.15)" xlink:href="#Áåçûìÿííûé_ãðàäèåíò_153"/><linearGradient id="Áåçûìÿííûé_ãðàäèåíò_153-6" x1="23.04" y1="240.15" x2="23.04" y2="233.25" xlink:href="#Áåçûìÿííûé_ãðàäèåíò_153"/><linearGradient id="Áåçûìÿííûé_ãðàäèåíò_153-7" x1="15.71" y1="229.17" x2="15.71" y2="222.27" xlink:href="#Áåçûìÿííûé_ãðàäèåíò_153"/><linearGradient id="Áåçûìÿííûé_ãðàäèåíò_153-8" x1="8.73" y1="240.15" x2="8.73" y2="233.25" xlink:href="#Áåçûìÿííûé_ãðàäèåíò_153"/><linearGradient id="Áåçûìÿííûé_ãðàäèåíò_153-9" x1="34.74" y1="239.3" x2="34.74" y2="232.12" xlink:href="#Áåçûìÿííûé_ãðàäèåíò_153"/><linearGradient id="Áåçûìÿííûé_ãðàäèåíò_153-10" x1="205.82" y1="305.44" x2="205.82" y2="298.54" gradientTransform="matrix(-0.8, -0.6, -0.6, 0.8, 610.68, 105.08)" xlink:href="#Áåçûìÿííûé_ãðàäèåíò_153"/><linearGradient id="Áåçûìÿííûé_ãðàäèåíò_34" x1="289.24" y1="504.04" x2="289.24" y2="489.06" gradientTransform="matrix(-0.15, -0.99, -0.99, 0.15, 804.96, 401.82)" gradientUnits="userSpaceOnUse"><stop offset="0.02" stop-color="#ff6f48"/><stop offset="1" stop-color="#ffa76d"/></linearGradient><linearGradient id="Áåçûìÿííûé_ãðàäèåíò_17" x1="281.05" y1="490.88" x2="281.05" y2="488.82" gradientTransform="matrix(-0.15, -0.99, -0.99, 0.15, 804.96, 401.82)" gradientUnits="userSpaceOnUse"><stop offset="0.02" stop-color="#ffb148"/><stop offset="0.95" stop-color="#ffa74e"/></linearGradient><linearGradient id="Áåçûìÿííûé_ãðàäèåíò_26" x1="291.83" y1="429.41" x2="291.83" y2="417.96" gradientTransform="matrix(0.11, -0.98, 1.07, 0.12, -203.29, 431.96)" gradientUnits="userSpaceOnUse"><stop offset="0.05" stop-color="#d3564e"/><stop offset="0.98" stop-color="#e89348"/></linearGradient><linearGradient id="Áåçûìÿííûé_ãðàäèåíò_17-2" x1="285.39" y1="420.42" x2="285.39" y2="417.96" gradientTransform="matrix(0.11, -0.98, 1.07, 0.12, -203.29, 431.96)" xlink:href="#Áåçûìÿííûé_ãðàäèåíò_17"/><linearGradient id="Áåçûìÿííûé_ãðàäèåíò_17-3" x1="294.83" y1="420.8" x2="294.83" y2="418.68" gradientTransform="matrix(0.11, -0.98, 1.07, 0.12, -203.29, 431.96)" xlink:href="#Áåçûìÿííûé_ãðàäèåíò_17"/><linearGradient id="Áåçûìÿííûé_ãðàäèåíò_17-4" x1="305.28" y1="422.86" x2="305.28" y2="420.98" gradientTransform="matrix(0.11, -0.98, 1.07, 0.12, -203.29, 431.96)" xlink:href="#Áåçûìÿííûé_ãðàäèåíò_17"/><linearGradient id="Áåçûìÿííûé_ãðàäèåíò_26-2" x1="-406.78" y1="270.69" x2="-406.78" y2="264.3" gradientTransform="matrix(-0.33, 0.94, 0.94, 0.33, -99.74, 486.05)" xlink:href="#Áåçûìÿííûé_ãðàäèåíò_26"/><linearGradient id="Áåçûìÿííûé_ãðàäèåíò_96" x1="-425.29" y1="266.23" x2="-425.29" y2="264.32" gradientTransform="matrix(-0.33, 0.94, 0.94, 0.33, -99.74, 486.05)" gradientUnits="userSpaceOnUse"><stop offset="0.05" stop-color="#ffa74e"/><stop offset="0.98" stop-color="#ffb148"/></linearGradient><linearGradient id="Áåçûìÿííûé_ãðàäèåíò_96-2" x1="-415" y1="266.04" x2="-415" y2="264.28" xlink:href="#Áåçûìÿííûé_ãðàäèåíò_96"/><linearGradient id="Áåçûìÿííûé_ãðàäèåíò_96-3" x1="-404.43" y1="266.15" x2="-404.43" y2="264.38" xlink:href="#Áåçûìÿííûé_ãðàäèåíò_96"/><linearGradient id="Áåçûìÿííûé_ãðàäèåíò_96-4" x1="-392" y1="266.57" x2="-392" y2="264.91" xlink:href="#Áåçûìÿííûé_ãðàäèåíò_96"/><linearGradient id="Áåçûìÿííûé_ãðàäèåíò_138" x1="33.31" y1="160.86" x2="33.31" y2="156.6" gradientTransform="matrix(-1, 0, 0, 1, 294.69, 0)" gradientUnits="userSpaceOnUse"><stop offset="0.01" stop-color="#792c27"/><stop offset="0.99" stop-color="#83202f"/></linearGradient><linearGradient id="Áåçûìÿííûé_ãðàäèåíò_138-2" x1="18.33" y1="154.83" x2="27.88" y2="154.83" xlink:href="#Áåçûìÿííûé_ãðàäèåíò_138"/><linearGradient id="Áåçûìÿííûé_ãðàäèåíò_133-5" x1="143.69" y1="340.75" x2="149.05" y2="340.75" gradientTransform="matrix(-0.86, 0.51, 0.51, 0.86, 219.87, -199.64)" xlink:href="#Áåçûìÿííûé_ãðàäèåíò_133"/><linearGradient id="Áåçûìÿííûé_ãðàäèåíò_133-6" x1="106.29" y1="272.92" x2="107.32" y2="272.92" gradientTransform="matrix(-0.93, 0.36, 0.36, 0.93, 270.04, -124.81)" xlink:href="#Áåçûìÿííûé_ãðàäèåíò_133"/><linearGradient id="Áåçûìÿííûé_ãðàäèåíò_133-7" x1="107.66" y1="272.49" x2="111.74" y2="272.49" gradientTransform="matrix(-0.93, 0.36, 0.36, 0.93, 270.04, -124.81)" xlink:href="#Áåçûìÿííûé_ãðàäèåíò_133"/><linearGradient id="Áåçûìÿííûé_ãðàäèåíò_133-8" x1="22.37" y1="177.21" x2="22.37" y2="147.63" xlink:href="#Áåçûìÿííûé_ãðàäèåíò_133"/><linearGradient id="Áåçûìÿííûé_ãðàäèåíò_286-2" x1="21.65" y1="164.07" x2="21.65" y2="142.51" xlink:href="#Áåçûìÿííûé_ãðàäèåíò_286"/><linearGradient id="Áåçûìÿííûé_ãðàäèåíò_147" x1="23.32" y1="175.91" x2="23.32" y2="143.76" gradientTransform="matrix(-1, 0, 0, 1, 294.69, 0)" gradientUnits="userSpaceOnUse"><stop offset="0.01" stop-color="#792c27"/><stop offset="0.99" stop-color="#82322f"/></linearGradient><linearGradient id="Áåçûìÿííûé_ãðàäèåíò_301" x1="4.64" y1="324.88" x2="4.64" y2="312.86" gradientTransform="matrix(-1, 0, 0, 1, 294.69, 0)" gradientUnits="userSpaceOnUse"><stop offset="0.05" stop-color="#ff3164"/><stop offset="0.98" stop-color="#ff406a"/></linearGradient><linearGradient id="Áåçûìÿííûé_ãðàäèåíò_133-9" x1="-42.07" y1="180.11" x2="-42.07" y2="138.08" gradientTransform="translate(232.23)" xlink:href="#Áåçûìÿííûé_ãðàäèåíò_133"/><linearGradient id="Áåçûìÿííûé_ãðàäèåíò_133-10" x1="-114.66" y1="174.52" x2="-114.66" y2="146.22" gradientTransform="translate(232.23)" xlink:href="#Áåçûìÿííûé_ãðàäèåíò_133"/><linearGradient id="Áåçûìÿííûé_ãðàäèåíò_274-3" x1="-94.35" y1="303.66" x2="-94.35" y2="289.7" gradientTransform="translate(232.23)" xlink:href="#Áåçûìÿííûé_ãðàäèåíò_274"/><linearGradient id="Áåçûìÿííûé_ãðàäèåíò_286-3" x1="-77.02" y1="136.86" x2="-77.02" y2="96.75" gradientTransform="translate(232.23)" xlink:href="#Áåçûìÿííûé_ãðàäèåíò_286"/><linearGradient id="Áåçûìÿííûé_ãðàäèåíò_274-4" x1="-81.94" y1="141.99" x2="-79.84" y2="130.06" gradientTransform="translate(232.23)" xlink:href="#Áåçûìÿííûé_ãðàäèåíò_274"/><linearGradient id="Áåçûìÿííûé_ãðàäèåíò_133-11" x1="-121.58" y1="195.45" x2="-121.58" y2="182.52" gradientTransform="translate(232.23)" xlink:href="#Áåçûìÿííûé_ãðàäèåíò_133"/><linearGradient id="Áåçûìÿííûé_ãðàäèåíò_290" x1="-74.22" y1="112.74" x2="-74.22" y2="109.45" gradientTransform="translate(232.23)" gradientUnits="userSpaceOnUse"><stop offset="0.01" stop-color="#792c27"/><stop offset="0.99" stop-color="#70132f"/></linearGradient><linearGradient id="Áåçûìÿííûé_ãðàäèåíò_290-2" x1="-61.17" y1="116.8" x2="-61.17" y2="113.16" xlink:href="#Áåçûìÿííûé_ãðàäèåíò_290"/><linearGradient id="Áåçûìÿííûé_ãðàäèåíò_2" x1="-100.9" y1="307.14" x2="-100.9" y2="291.06" gradientTransform="translate(232.23)" gradientUnits="userSpaceOnUse"><stop offset="0.02" stop-color="#ffae78"/><stop offset="1" stop-color="#ff7763"/></linearGradient><linearGradient id="Áåçûìÿííûé_ãðàäèåíò_320" x1="-105.34" y1="293.12" x2="-105.34" y2="180.57" gradientTransform="translate(232.23)" gradientUnits="userSpaceOnUse"><stop offset="0" stop-color="#5454a2"/><stop offset="0.98" stop-color="#6b6bc2"/></linearGradient><linearGradient id="Áåçûìÿííûé_ãðàäèåíò_327" x1="-96.14" y1="323.12" x2="-96.14" y2="301.93" gradientTransform="translate(232.23)" gradientUnits="userSpaceOnUse"><stop offset="0.05" stop-color="#2cd6bd"/><stop offset="0.98" stop-color="#43acb1"/></linearGradient><linearGradient id="Áåçûìÿííûé_ãðàäèåíò_357" x1="-61.55" y1="177.19" x2="-61.55" y2="160.09" gradientTransform="translate(232.23)" gradientUnits="userSpaceOnUse"><stop offset="0.03" stop-color="#9cabff"/><stop offset="1" stop-color="#bad1ff"/></linearGradient><linearGradient id="Áåçûìÿííûé_ãðàäèåíò_133-12" x1="11.62" y1="369.87" x2="17.43" y2="369.87" gradientTransform="matrix(0.86, 0.51, -0.51, 0.86, 341.45, -199.64)" xlink:href="#Áåçûìÿííûé_ãðàäèåíò_133"/><linearGradient id="Áåçûìÿííûé_ãðàäèåíò_133-13" x1="-28.78" y1="280.38" x2="-27.66" y2="280.38" gradientTransform="matrix(0.93, 0.36, -0.36, 0.93, 291.28, -124.81)" xlink:href="#Áåçûìÿííûé_ãðàäèåíò_133"/><linearGradient id="Áåçûìÿííûé_ãðàäèåíò_133-14" x1="-27.3" y1="279.92" x2="-22.87" y2="279.92" gradientTransform="matrix(0.93, 0.36, -0.36, 0.93, 291.28, -124.81)" xlink:href="#Áåçûìÿííûé_ãðàäèåíò_133"/><linearGradient id="Áåçûìÿííûé_ãðàäèåíò_2-2" x1="-93.46" y1="34.19" x2="-91.48" y2="22.93" gradientTransform="translate(229.15 80.41) rotate(-8.5)" xlink:href="#Áåçûìÿííûé_ãðàäèåíò_2"/><linearGradient id="Áåçûìÿííûé_ãðàäèåíò_133-15" x1="-90.46" y1="126.07" x2="-90.46" y2="117.96" gradientTransform="translate(232.23)" xlink:href="#Áåçûìÿííûé_ãðàäèåíò_133"/><linearGradient id="Áåçûìÿííûé_ãðàäèåíò_133-16" x1="-89.16" y1="125.35" x2="-89.16" y2="120.19" gradientTransform="translate(232.23)" xlink:href="#Áåçûìÿííûé_ãðàäèåíò_133"/><linearGradient id="Áåçûìÿííûé_ãðàäèåíò_133-17" x1="-62.19" y1="125.77" x2="-62.19" y2="113.16" gradientTransform="translate(232.23)" xlink:href="#Áåçûìÿííûé_ãðàäèåíò_133"/><linearGradient id="Áåçûìÿííûé_ãðàäèåíò_133-18" x1="-72.39" y1="137.77" x2="-72.39" y2="101.83" gradientTransform="translate(232.23)" xlink:href="#Áåçûìÿííûé_ãðàäèåíò_133"/><linearGradient id="Áåçûìÿííûé_ãðàäèåíò_337" x1="-64.46" y1="101.23" x2="-46.12" y2="101.23" gradientTransform="translate(232.23)" gradientUnits="userSpaceOnUse"><stop offset="0.01" stop-color="#c245ba"/><stop offset="1" stop-color="#ffeadb"/></linearGradient><linearGradient id="Áåçûìÿííûé_ãðàäèåíò_337-2" x1="-45.48" y1="108.75" x2="-44.87" y2="108.75" xlink:href="#Áåçûìÿííûé_ãðàäèåíò_337"/><linearGradient id="Áåçûìÿííûé_ãðàäèåíò_367" x1="-106.9" y1="168.26" x2="-106.9" y2="144.18" gradientTransform="translate(232.23)" gradientUnits="userSpaceOnUse"><stop offset="0.03" stop-color="#9cabff"/><stop offset="1" stop-color="#d8e5ff"/></linearGradient><linearGradient id="Áåçûìÿííûé_ãðàäèåíò_357-2" x1="-81.29" y1="146.91" x2="-81.29" y2="137.35" xlink:href="#Áåçûìÿííûé_ãðàäèåíò_357"/><linearGradient id="Áåçûìÿííûé_ãðàäèåíò_153-11" x1="-85.7" y1="245.1" x2="-85.7" y2="137.78" gradientTransform="translate(232.23)" xlink:href="#Áåçûìÿííûé_ãðàäèåíò_153"/><linearGradient id="Áåçûìÿííûé_ãðàäèåíò_290-3" x1="-80.48" y1="136.35" x2="-80.48" y2="96.83" xlink:href="#Áåçûìÿííûé_ãðàäèåíò_290"/></defs><title>about_page_illus</title><g style="isolation:isolate"><g id="Layer_1" data-name="Layer 1"><path d="M177.84,175.83c2.87,3.19,9.57-4.75,11.39-12.08,2.22-9,3.35-13.7,4.48-14.36,1.11-1.08,5.28-1.8,8.67-2.45h0.09l0.07,0a21,21,0,0,0,4.15-1,36.62,36.62,0,0,0,5.43-4.16L212,141.4h0c0.08-.09.88-1.05,0.39-1.34a6.5,6.5,0,0,0-1.72-.41,2.8,2.8,0,0,0-.59-0.56,16.55,16.55,0,0,0-5.48.28l0.5-2-0.94.62a14.06,14.06,0,0,0,.63-4.15v0a1.35,1.35,0,0,0-.15-1s0,0,0,0h0c-0.43-.86-1.87-2.18-6.11-1.52a17.6,17.6,0,0,0-3.69.9,2.76,2.76,0,0,0-1.25.81l0,0a0.5,0.5,0,0,0-.1.37,12.49,12.49,0,0,0,.37,4.65l-0.78-.35,0.13,0.5c-3.2.25-4.33,0.84-5.11,2.37-1.18,2.28,1.75,6.11.77,9.95,0,0.15-.08.3-0.14,0.47-1.37,3.9-7.84,10.24-9.15,11.17a4.52,4.52,0,0,0-1.7,2.41S175,172.63,177.84,175.83Z" transform="translate(-30.25 -91.26)" style="fill:#cf6556;fill-rule:evenodd"/><ellipse cx="162.42" cy="232.12" rx="162.42" ry="36.1" style="fill:#a82a37;opacity:0.67"/><path d="M237.75,167.69a4.41,4.41,0,0,0-3,1.92c-1.36,1.83-1.27,8.92-1.27,8.92a8.56,8.56,0,0,0,4.31-4.9A11,11,0,0,0,237.75,167.69Z" transform="translate(-30.25 -91.26)" style="fill:#522e7b;fill-rule:evenodd"/><path d="M223.12,153.24a3.94,3.94,0,0,0,.31,1.13,14.71,14.71,0,0,0,3.64,5.37c2.6,2.4,6,4.77,6.53,6.1l0.21,0.57c0.69,2.19,2.24,8.32,2.24,8.32a2.08,2.08,0,0,0,.73,0,4,4,0,0,0,2.59-1.83s-1.87-4.82-1.77-6.59,2.44-4.37,2.16-5.89-2-2.32-3.54-3.58-2.37-3.88-2.7-4-1.05,1.25-.82,2.54,2,1.79,2.54,2.29a2.74,2.74,0,0,1,.73.93,3.84,3.84,0,0,1-.74.08,4.71,4.71,0,0,1-2.57-.72,5.63,5.63,0,0,1-1.78-2.36,11.1,11.1,0,0,0-1.32-2.46c-0.92-1-2.65-1.44-2.87-1.2a2.3,2.3,0,0,0,.47.93l0,0c1.1,1.72,3.61,5.11,3.61,5.11l-0.58-.09a6.79,6.79,0,0,1-1-.85h0a9.44,9.44,0,0,1-1.13-1.39c-1-1.53-1.55-2.48-2.91-3.09a3,3,0,0,0-2.49-.29A2,2,0,0,0,223.12,153.24Z" transform="translate(-30.25 -91.26)" style="fill:#ff8e65"/><path d="M223.12,153.24a7.27,7.27,0,0,1,3.83,3.93,7,7,0,0,0,3.19,2.22c2.18,0.78,5.28,1.16,5.66,3s-2.2,3.48-2.2,3.48l0.21,0.57,2.24,8.32a5.2,5.2,0,0,0,3.32-1.85s-1.87-4.82-1.77-6.59,2.44-4.37,2.16-5.89a4.37,4.37,0,0,1-3,.9c-1.51-.28-1.51-2.62-1.51-2.62a4.71,4.71,0,0,1-2.57-.72,5.63,5.63,0,0,1-1.78-2.36,0.75,0.75,0,0,1-.77.65c-0.7-.12-2.95-3.38-2.95-3.38l0,0c1.1,1.72,3.61,5.11,3.61,5.11l-0.58-.09a6.79,6.79,0,0,1-1-.85h0a9.44,9.44,0,0,1-1.13-1.39c-1-1.53-1.55-2.48-2.91-3.09a3,3,0,0,0-2.49-.29A2,2,0,0,0,223.12,153.24Z" transform="translate(-30.25 -91.26)" style="fill-rule:evenodd;opacity:0.58;mix-blend-mode:multiply;fill:url(#Áåçûìÿííûé_ãðàäèåíò_133)"/><path d="M235.47,163.94a3,3,0,0,0,.32-2.64c-0.46-1.73-4-1.52-6.53-2.29a32.92,32.92,0,0,0,4.53,1.28C236.57,160.89,235.47,163.94,235.47,163.94Z" transform="translate(-30.25 -91.26)" style="fill-rule:evenodd;opacity:0.58;mix-blend-mode:multiply;fill:url(#Áåçûìÿííûé_ãðàäèåíò_133-2)"/><path d="M237.75,167.69s-0.71,4-2.26,5l0.56,2.06A25.68,25.68,0,0,0,237.75,167.69Z" transform="translate(-30.25 -91.26)" style="fill:#b84054;fill-rule:evenodd"/><path d="M254.95,276a64.24,64.24,0,0,1,.28,13.5c3.7,1.65,9.34.52,9.34,0.52a24,24,0,0,0,.59-7.25c-0.13-3.74-.63-6.94-0.94-9.56-0.1-.8-0.17-1.55-0.22-2.23a21,21,0,0,1,1.16-6.78,17.64,17.64,0,0,0-3-4.73,46.37,46.37,0,0,0-6-5.83c-0.18.87-.39,2.46-0.61,4.24-0.45,3.87-.89,8.66-0.95,9a9.9,9.9,0,0,0-.72,3.84A30.24,30.24,0,0,0,254.95,276Z" transform="translate(-30.25 -91.26)" style="fill:url(#Áåçûìÿííûé_ãðàäèåíò_274)"/><path d="M250.23,308.65a12.82,12.82,0,0,0,.5,2.47l5,5.55s0-.15,1.55-0.31a3.32,3.32,0,0,0,2.29-1.9,4.32,4.32,0,0,0,.71-1.6c0-.62-0.77-0.58-0.71-1.19s3.11-4.12,4.11-10.23,1-9.87,1.32-10.76a7,7,0,0,1,1-1.54,6,6,0,0,0-1-1.39l-0.16,1.11a20.25,20.25,0,0,1-9.49-1l0.06-.88a2,2,0,0,0-.94.73,25.75,25.75,0,0,1,.13,6.38,51.45,51.45,0,0,1-1.71,5.65c-0.06.57,0.54,3.38,0.13,5.18S250.23,307.86,250.23,308.65Z" transform="translate(-30.25 -91.26)" style="fill:#8d3191;fill-rule:evenodd"/><path d="M254.67,266.95a32,32,0,0,1,9.54,6.3h0c-0.1-.8-0.17-1.55-0.22-2.23a21,21,0,0,1,1.16-6.78,17.64,17.64,0,0,0-3-4.73l-6.58-1.59C255.17,261.8,254.73,266.59,254.67,266.95Z" transform="translate(-30.25 -91.26)" style="fill:#7c0477;fill-rule:evenodd;opacity:0.4;mix-blend-mode:multiply"/><path d="M281.52,259.61s0.11,1.18.29,2.9c0.32,3.1.83,7.95,1.24,10.77a17,17,0,0,0,.37,2.09c0.53,1.67,2.27,4.29,4.64,11s3.22,16.51,3.22,16.51a8.12,8.12,0,0,0,7.83-.28s0.79-3.54,0-11.08a38.43,38.43,0,0,0-4.89-15.32,20.32,20.32,0,0,1-1.93-6.44c-0.37-2-.79-6.13-1-8-0.06-.58-0.09-0.94-0.09-0.94C286.83,258.19,281.52,259.61,281.52,259.61Z" transform="translate(-30.25 -91.26)" style="fill:#ff8e65"/><path d="M296.3,282.54s0.9,1.71-.57,1.94a16.48,16.48,0,0,0-5.24-3s-0.54-1.94.79-1.9C291.28,279.6,295,280.88,296.3,282.54Z" transform="translate(-30.25 -91.26)" style="fill:#ffb9b3;fill-rule:evenodd"/><path d="M285.53,308.62c0.26,1.2,4,4.68,4,4.68s6.85,4,7.42,4.2a10.45,10.45,0,0,0,2.84-.48s1.32,0.06,1.42-.35v0c0-.4-1.14-0.77-1.14-1s2.43-4.15,2.56-6a1.33,1.33,0,0,0,0-.5c-0.44-1.49-2.5-2.65-2.56-3s0.09-2.12,0-3a2.06,2.06,0,0,0-.82-1.35l-0.13.78c-5,1.93-7.83.28-7.83,0.28l-0.11-1.06s-2.67.59-2.67,0.94,0.85,1.45,1,2a2.08,2.08,0,0,1-1,.94h0C287.28,306.61,285.36,307.81,285.53,308.62Z" transform="translate(-30.25 -91.26)" style="fill:#954099;fill-rule:evenodd"/><path d="M281.81,262.51c0.32,3.1.83,7.95,1.24,10.77a27.65,27.65,0,0,1,11.17,2.94,20.32,20.32,0,0,1-1.93-6.44c-0.37-2-.79-6.13-1-8Z" transform="translate(-30.25 -91.26)" style="fill:#7c0477;fill-rule:evenodd;opacity:0.4;mix-blend-mode:multiply"/><path d="M232.4,179.06a6.11,6.11,0,0,0,3.37,2.44s3,7.16,3.74,9.12,7.67,3,10.8,3.24,10.3,0,10.3,0l0,0,0.07-.09c0.91-1.19,8.45-10.94,12.47-14.92a12.75,12.75,0,0,0-3.41,0h-0.08l-0.19,0-0.41.11-0.21.07c-2.65.91-9.93,4.83-12.36,4.71-2.65-.13-3.46-0.46-4-0.33s-0.56,1.09-1.8,1.25a2.48,2.48,0,0,1-.62,0c-1.85-.12-3.22-2.16-4-2.11s-0.85.62-1.23,0.62-5.16-10.14-5.57-12.08a5.61,5.61,0,0,1-.12-1.46h0c0.05-1,.34-1.6.12-1.92a1.15,1.15,0,0,0-1.12-.12,2.94,2.94,0,0,0-.42.12s-0.85,7.48-3.64,9.91c0,0-.68-4.82.6-8l-0.29-1.06S231.64,174.78,232.4,179.06Z" transform="translate(-30.25 -91.26)" style="fill:#c4cce8;fill-rule:evenodd"/><path d="M232.4,179.06a6.11,6.11,0,0,0,3.37,2.44s3,7.16,3.74,9.12,7.67,3,10.8,3.24,10.3,0,10.3,0l0,0,0.07-.09,9.55-11,3.41-3.93-1.52-.13a11.82,11.82,0,0,0-2.38.08h-0.08c-0.22,0-.43.09-0.6,0.14l-0.21.07a6.13,6.13,0,0,1,0,3c-0.44,1.63-13,3.64-16.38,1.34-0.49.1-.56,1.09-1.8,1.25h0a1.4,1.4,0,0,1-.46.79c-0.34.38-1.49,0.25-2.81-.89a3.1,3.1,0,0,1-1.33-2c-0.76,0-.85.62-1.23,0.62s-5.16-10.14-5.57-12.08a5.61,5.61,0,0,1-.12-1.46c0,0.29-.88,5.83-2.13,7.53,0,0,1.81-6.77,1.13-9.58a2.94,2.94,0,0,0-.42.12s-0.85,7.48-3.64,9.91c0,0-.68-4.82.6-8l-0.29-1.06S231.64,174.78,232.4,179.06Z" transform="translate(-30.25 -91.26)" style="fill:#da4a81;fill-rule:evenodd;opacity:0.4;mix-blend-mode:multiply"/><path d="M255.06,214a48.45,48.45,0,0,0-3,4.14c-0.73,1.29.83,3.09,0.83,3.09A12.49,12.49,0,0,0,255.06,214Z" transform="translate(-30.25 -91.26)" style="fill:#6b2288;fill-rule:evenodd"/><path d="M253,230s4.45,1.29,13,0,22.34-.73,22.34-0.73-13.09-26-12.21-34.29a68.79,68.79,0,0,0-.32-15.93s-10.59,7.41-15.23,17.55S253,230,253,230Z" transform="translate(-30.25 -91.26)" style="fill:#522e7b;fill-rule:evenodd"/><path d="M286.31,170.86s-0.13,2.78,2.35,9.88,5.47,13.78,5.56,21.93c0,0-.86,7.27-7.91,9.65a9.58,9.58,0,0,0,.37-7.47c-1.46-4.36-6.29-11.56-7-18.66s2.65-17.27,2.65-17.27Z" transform="translate(-30.25 -91.26)" style="fill:url(#Áåçûìÿííûé_ãðàäèåíò_286)"/><path d="M283,170.71s-2,7.19-2,10.65c0,0-5.62,3.25-7.33,2.12s1.89-3.37,1.89-3.37a25.59,25.59,0,0,0,.89-3.89Z" transform="translate(-30.25 -91.26)" style="fill:url(#Áåçûìÿííûé_ãðàäèåíò_274-2)"/><path d="M262.15,167.5c-0.11,1.63-.87,3-0.33,5.09,0.62,2.43,6,4.09,6.79,4.69s2.57,1,5.83-.07l0,0c0.35-.1.72-0.23,1.11-0.38a12.59,12.59,0,0,0,1.86-.88l0.6-.36c0.25-.15.51-0.33,0.77-0.52a15.34,15.34,0,0,0,1.23-1,17.21,17.21,0,0,0,3.89-5c1.37-2.65,1.75-7.79.5-12.13a12.83,12.83,0,0,0-2.11-4.4c-1.8-2.33-5.63-4-9.48-4.8-3.67-.73-7.36-0.6-9.28.68a6.5,6.5,0,0,0-1.22,1c-1.8,1.89-2.45,4.7-2.52,7.81-0.1,3.75,2.27,7.74,2.34,9.64A3.55,3.55,0,0,1,262.15,167.5Z" transform="translate(-30.25 -91.26)" style="fill:#ff8e65"/><path d="M283.73,164.07s1.33-2.81,3.49-3.56a4,4,0,0,1,2.47,1.31c1.57,2.2.81,6.26-.8,8.1s-4.92.52-5.41-.35S283.73,164.07,283.73,164.07Z" transform="translate(-30.25 -91.26)" style="fill:#ff8e65"/><path d="M283.84,167.43s3.09-5.29,4.38-5.14,1.38,2.74,1.22,4.18a9.28,9.28,0,0,1-1.24,3.14,12.13,12.13,0,0,0,1-3.26,3.45,3.45,0,0,0-.78-2.72,2.49,2.49,0,0,0-1.72.94,7.85,7.85,0,0,1,.52,2.42,2.47,2.47,0,0,1-2,1.74c-0.26-.14,0-1.62-0.22-1.74A2.51,2.51,0,0,0,283.84,167.43Z" transform="translate(-30.25 -91.26)" style="fill-rule:evenodd;opacity:0.58;mix-blend-mode:multiply;fill:url(#Áåçûìÿííûé_ãðàäèåíò_133-3)"/><path d="M286,164.18a5.14,5.14,0,0,1,1,2.71,1.9,1.9,0,0,1-1.67,1.65c-0.29-.08-0.15-1.46-0.32-1.66a1.4,1.4,0,0,0-.94.11S285.53,164.78,286,164.18Z" transform="translate(-30.25 -91.26)" style="fill-rule:evenodd;opacity:0.58;mix-blend-mode:multiply;fill:url(#Áåçûìÿííûé_ãðàäèåíò_133-4)"/><path d="M286.67,173.79a6.3,6.3,0,0,1-4.63.62l0.94-3.7,0.62-1a4.41,4.41,0,0,0,2.71,1.14Z" transform="translate(-30.25 -91.26)" style="fill:#8d3191;fill-rule:evenodd"/><path d="M253.53,260.62a0.28,0.28,0,0,0,0,.22c0.18,0.41,2.07,3.49,7.63,4.84l0.66,0.15c0.61,0.13,1.2.25,1.77,0.39,5.12,1.16,8.76,2.46,11.43,4.28a2.64,2.64,0,0,0,.63.31h0c3.95,1.47,16.58-.46,17.12-0.76s-0.25-2.82,0-3.7,1.9-2.34,2.13-3.2-4.09-13.81-6.24-24.87c-0.29-1.51-.58-3.55-0.86-6-0.05-.46-0.11-0.94-0.16-1.43-1.68-15.57-2.95-43.62-2.9-45.47,0.07-2.21-3.75-4.87-3.75-4.87l0,0.8s-5.36,2.77-7.1,1.58c-1.51-1,1.67-2.84,1.67-2.84l0.3-1a40.59,40.59,0,0,0-11.25,12.48c-1.42,2.59-2.37,6.47-3,10.73-1.33,8.41-1.6,18.27-2.35,22.48-0.3,1.68-.78,4.9-1.33,8.73-0.13.89-.26,1.82-0.39,2.77-0.9,6.42-1.89,13.83-2.51,18.48-0.13,1-.25,1.87-0.34,2.58,0,0.13,0,.25-0.05.36-0.1.69-.16,1.19-0.2,1.45v0.21a5,5,0,0,0-.75,1.09h0A0.49,0.49,0,0,0,253.53,260.62Z" transform="translate(-30.25 -91.26)" style="fill-rule:evenodd;fill:url(#linear-gradient)"/><path d="M268.57,182.76s-14.48,9.71-19.82,10.93a54.82,54.82,0,0,0,11.95,0S268.13,184.27,268.57,182.76Z" transform="translate(-30.25 -91.26)" style="fill:#9c2c6c;fill-rule:evenodd;opacity:0.4;mix-blend-mode:multiply"/><path d="M253.53,260.84c0.19,0.43,2.22,3.73,8.29,5S272,268.48,275,270.5s17.18-.12,17.75-0.44-0.25-2.82,0-3.7,1.9-2.34,2.13-3.2a12.29,12.29,0,0,1-2.58,2.29s0.67,2.72.35,3.32-9.95,2-14.75.91-9-3.79-13.39-4.73-9-1.29-10.95-4.52A0.52,0.52,0,0,0,253.53,260.84Z" transform="translate(-30.25 -91.26)" style="fill:#ffb4ae;fill-rule:evenodd"/><path d="M279.17,182.87s-5.68,2.43-7.15,1.42,3.8-5.23,3.8-5.23l-0.3,1s-2,1.68-1.55,2.42,6.14-1,6.14-1Z" transform="translate(-30.25 -91.26)" style="fill:#ffb4ae;fill-rule:evenodd"/><g style="mix-blend-mode:soft-light"><path d="M281.1,249.35a21.4,21.4,0,0,0-1.32-2.55c-0.22-.15-2.25.78-2.4,1.36s3.22,1.71,3.22,1.71a20.53,20.53,0,0,0-3.61-.13c-0.42.2,0.32,2.77,0.61,3s3.48-1.86,3.48-1.86a6.48,6.48,0,0,0-.1,2.5c0.29,0.56,2.84.34,3.26-.34s-2.4-2.55-2.4-2.55,2-.17,2.44-0.64-1.44-2.47-1.88-2.55S281.1,249.35,281.1,249.35Z" transform="translate(-30.25 -91.26)" style="fill-rule:evenodd;fill:url(#Áåçûìÿííûé_ãðàäèåíò_153)"/><path d="M264.81,248.06a25.37,25.37,0,0,0-.95-2.55,2.74,2.74,0,0,0-1.72,1.36c-0.11.58,2.31,1.71,2.31,1.71a10.6,10.6,0,0,0-2.59-.13c-0.3.2,0.23,2.77,0.44,3s2.49-1.86,2.49-1.86a9,9,0,0,0-.07,2.5c0.21,0.56,2,.34,2.34-0.34s-1.72-2.55-1.72-2.55a3.37,3.37,0,0,0,1.75-.64c0.29-.47-1-2.47-1.35-2.55S264.81,248.06,264.81,248.06Z" transform="translate(-30.25 -91.26)" style="fill-rule:evenodd;fill:url(#Áåçûìÿííûé_ãðàäèåíò_153-2)"/><path d="M255.86,258.77a9,9,0,0,0-.07,2.5c0.21,0.56,2,.34,2.33-0.34s-1.72-2.55-1.72-2.55a3.32,3.32,0,0,0,1.75-.64c0.29-.46-1-2.47-1.35-2.54s-0.93,2.06-.93,2.06-0.75-2.28-.93-2.53c-0.13,1-.25,1.87-0.34,2.58,0.42,0.23.79,0.41,0.88,0.46l-0.93-.1-0.22,1.66a5,5,0,0,0-.75,1.09h0a0.49,0.49,0,0,0-.05.19A18.2,18.2,0,0,0,255.86,258.77Z" transform="translate(-30.25 -91.26)" style="fill-rule:evenodd;fill:url(#Áåçûìÿííûé_ãðàäèåíò_153-3)"/><path d="M278,260.95a25.37,25.37,0,0,0,.73-2.62,2.74,2.74,0,0,0-2.19.09c-0.42.4,0.86,2.74,0.86,2.74a10.6,10.6,0,0,0-2-1.63c-0.36,0-1.44,2.37-1.4,2.67s3.11,0,3.11,0a9,9,0,0,0-1.53,2c-0.16.58,1.44,1.48,2.09,1.1s0.11-3.07.11-3.07a3.37,3.37,0,0,0,1.79.52c0.5-.21.62-2.61,0.41-2.85S278,260.95,278,260.95Z" transform="translate(-30.25 -91.26)" style="fill-rule:evenodd;fill:url(#Áåçûìÿííûé_ãðàäèåíò_153-4)"/><path d="M291.34,259.35s-0.76-2.33-.88-2.47a2.13,2.13,0,0,0-1,1.47c0,0.58,1.7,1.55,1.7,1.55a4.74,4.74,0,0,0-1.73,0,9,9,0,0,0,.59,2.94c0.16,0.21,1.46-2,1.46-2a13.43,13.43,0,0,0,.2,2.49c0.2,0.55,1.38.21,1.51-.5s-1.39-2.42-1.39-2.42a1.83,1.83,0,0,0,1.1-.75,4.86,4.86,0,0,0-1.15-2.44C291.54,257.19,291.34,259.35,291.34,259.35Z" transform="translate(-30.25 -91.26)" style="fill-rule:evenodd;fill:url(#Áåçûìÿííûé_ãðàäèåíò_153-5)"/><path d="M272,235.81a25.34,25.34,0,0,0-.95-2.55,2.74,2.74,0,0,0-1.72,1.36c-0.11.58,2.31,1.71,2.31,1.71a10.6,10.6,0,0,0-2.59-.13c-0.3.2,0.23,2.77,0.44,3s2.49-1.86,2.49-1.86a9,9,0,0,0-.07,2.5c0.21,0.56,2,.34,2.34-0.34s-1.72-2.55-1.72-2.55a3.37,3.37,0,0,0,1.75-.64c0.29-.47-1-2.47-1.35-2.55S272,235.81,272,235.81Z" transform="translate(-30.25 -91.26)" style="fill-rule:evenodd;fill:url(#Áåçûìÿííûé_ãðàäèåíò_153-6)"/><path d="M279.34,224.83a25.36,25.36,0,0,0-.95-2.55,2.74,2.74,0,0,0-1.72,1.36c-0.11.58,2.31,1.71,2.31,1.71a10.6,10.6,0,0,0-2.59-.13c-0.3.2,0.23,2.77,0.44,3s2.49-1.86,2.49-1.86a9,9,0,0,0-.07,2.5c0.21,0.56,2,.34,2.34-0.34s-1.72-2.55-1.72-2.55a3.37,3.37,0,0,0,1.75-.64c0.29-.47-1-2.47-1.35-2.55S279.34,224.83,279.34,224.83Z" transform="translate(-30.25 -91.26)" style="fill-rule:evenodd;fill:url(#Áåçûìÿííûé_ãðàäèåíò_153-7)"/><path d="M286.22,235.81s-0.57-2.4-.68-2.55a2.2,2.2,0,0,0-1.23,1.36c-0.08.58,1.66,1.71,1.66,1.71a5.5,5.5,0,0,0-1.86-.13,8.39,8.39,0,0,0,.32,3c0.15,0.22,1.79-1.86,1.79-1.86a12.46,12.46,0,0,0-.05,2.5c0.15,0.56,1.46.34,1.68-.34s-1.23-2.55-1.23-2.55a2,2,0,0,0,1.26-.64,4.64,4.64,0,0,0-1-2.55C286.66,233.68,286.22,235.81,286.22,235.81Z" transform="translate(-30.25 -91.26)" style="fill-rule:evenodd;fill:url(#Áåçûìÿííûé_ãðàäèåíò_153-8)"/><path d="M259.46,236.13a9,9,0,0,0-1.55,2c-0.17.57,1.42,1.49,2.07,1.12s0.15-3.07.15-3.07a3.4,3.4,0,0,0,1.78.54c0.51-.2.66-2.6,0.45-2.84s-2,1.08-2,1.08a25,25,0,0,0,.77-2.6,2.77,2.77,0,0,0-2.19.05c-0.43.4,0.82,2.76,0.82,2.76a12.42,12.42,0,0,0-1.94-1.65c-0.13.89-.26,1.82-0.39,2.77C258.35,236.24,259.46,236.13,259.46,236.13Z" transform="translate(-30.25 -91.26)" style="fill-rule:evenodd;fill:url(#Áåçûìÿííûé_ãðàäèåíò_153-9)"/><path d="M265.76,223a25.35,25.35,0,0,0,.77-2.61,2.74,2.74,0,0,0-2.19.06c-0.43.4,0.82,2.75,0.82,2.75a10.6,10.6,0,0,0-2-1.66c-0.36,0-1.48,2.35-1.44,2.65s3.11,0,3.11,0a9,9,0,0,0-1.55,2c-0.17.58,1.42,1.5,2.07,1.13s0.15-3.07.15-3.07a3.37,3.37,0,0,0,1.78.54c0.51-.2.66-2.6,0.45-2.85S265.76,223,265.76,223Z" transform="translate(-30.25 -91.26)" style="fill-rule:evenodd;fill:url(#Áåçûìÿííûé_ãðàäèåíò_153-10)"/></g><path d="M261.16,265.68l0.66,0.15c6.06,1.26,10.23,2.65,13.2,4.67a2.64,2.64,0,0,0,.63.31s-1.17-10.44-2.52-16.08-5.45-19.15-5.75-19.21,2.69,15.26,2.78,16.36-5.3-7.3-7.7-15.18-0.73-12.52-.73-12.52,4.95,1.45,7.26,3.17,3.39,5.87,4.84,7.49,12.91-2.15,14-2.51l0.08,0v-1l-0.24-.4L281.08,220l-16.6-21.51-3,3.82c-1.33,8.41-1.6,18.27-2.35,22.48-0.3,1.68-.78,4.9-1.33,8.73-0.13.89-.26,1.82-0.39,2.77-0.9,6.42-1.89,13.83-2.51,18.48-0.13,1-.25,1.87-0.34,2.58,0,0.13,0,.25,0,0.36-0.1.69-.16,1.19-0.2,1.45v0.21s2.56-6.94,7.39,5.06C263.48,265.09,262.74,265.48,261.16,265.68Z" transform="translate(-30.25 -91.26)" style="fill:#c44fb0;fill-rule:evenodd;opacity:0.4;mix-blend-mode:multiply"/><path d="M271.63,223.17c0.08,0.74.17,1.44,0.26,2.1l0,0.16c0.21,1.46.43,2.72,0.63,3.7v0a8.3,8.3,0,0,0,.62,2.12c0.8,1.14,5.45,1.27,10.5.7s9.08-1.88,9.08-2.59-1-2.23-2-6.2h0c-0.15-.56-0.3-1.15-0.45-1.81,0-.16-0.07-0.34-0.11-0.51C289,215.18,286,195.43,286,195.43c-0.14-2.48-.55-9.27-1-10.73s-2.43-3.34-2.43-3.63a2.56,2.56,0,0,0,.41-1.42c-0.15-.76-1.76-1.12-1.76-1.12l-0.23,2c-2.56,2.27-8.62,14.09-9.76,24.7A85,85,0,0,0,271.63,223.17Z" transform="translate(-30.25 -91.26)" style="fill:#dbd6e5;fill-rule:evenodd"/><path d="M276.14,177.7a2.48,2.48,0,0,0-1.74.14c-0.81.44-1.42,1.28-1.56,1.22s-8.74,8.83-12,14.32-5.81,23.43-7.83,27.54-2.08,7.71,0,9.09c0,0,4.89-22.22,7.77-31.77,3-10,15-19.19,15-19.19Z" transform="translate(-30.25 -91.26)" style="fill:#dbd6e5;fill-rule:evenodd"/><path d="M285,184.7c0.84,0.73,2.73,6,4.11,12.66s6.09,12.34,6.51,15L285,214a48.12,48.12,0,0,0-4.85-11.76c-3.13-5-2.94-8-2.94-8.67S282,183.88,285,184.7Z" transform="translate(-30.25 -91.26)" style="fill:#c0d6e5;fill-rule:evenodd"/><path d="M282.54,172.36s-3.22,6.87-7,7.74c0,0,.63-2.28.84-3.6a16.16,16.16,0,0,0,6.62-5.79Z" transform="translate(-30.25 -91.26)" style="fill:#862043;fill-rule:evenodd"/><path d="M276.36,176.5l-0.22,1.2s-1.5-.81-3,1.12a9.82,9.82,0,0,0-4.3.18,7.1,7.1,0,0,1,0,3,19.16,19.16,0,0,1-1.94,3.5l13.69-1,2.36-6.32a5,5,0,0,1-1.34-1.52c0-.41,1.34-6,1.34-6S279.4,175.48,276.36,176.5Z" transform="translate(-30.25 -91.26)" style="fill:#5b0477;fill-rule:evenodd;opacity:0.61;mix-blend-mode:multiply"/><path d="M273.78,183c-4.12.64-11.3,4.75-11.3,4.75l3.75,24.64s7.06,0.36,10.92.26a7.53,7.53,0,0,0,2.39-.27c1-.63-0.92-24.64-3.13-28.74C276.05,182.92,275.07,182.78,273.78,183Z" transform="translate(-30.25 -91.26)" style="fill:#ba474e;fill-rule:evenodd"/><path d="M264,197.56l-1.5-9.83s11.4-6,13.68-4.43c1,0.69,3,12.12,2.19,13S264,197.56,264,197.56Z" transform="translate(-30.25 -91.26)" style="fill-rule:evenodd;fill:url(#Áåçûìÿííûé_ãðàäèåíò_34)"/><path d="M262.49,187.73c3.83,5.93,3.75,24.64,3.75,24.64,1.24,0,13.08.14,13.32,0,1-.63-0.74-24.74-3.13-28.74C274.89,181,264.68,186.31,262.49,187.73Z" transform="translate(-30.25 -91.26)" style="fill:#a41b40;fill-rule:evenodd;opacity:0.5700000000000001"/><path d="M279.56,212.36a66.78,66.78,0,0,0-1.2-16.09s-1.07-11-2.19-13c0,0,1.64,1.18,2.92,13S280,211.16,279.56,212.36Z" transform="translate(-30.25 -91.26)" style="fill-rule:evenodd;fill:url(#Áåçûìÿííûé_ãðàäèåíò_17)"/><path d="M269.4,212.56s-2-.05-3.25-5.65-3.67-19.18-3.67-19.18l3.75,24.64Z" transform="translate(-30.25 -91.26)" style="fill:#7c1b40;fill-rule:evenodd;opacity:0.2"/><path d="M286.7,173.79l-1.36,19.79-1.51,22s-10-1.48-10.7-13h0c0.6-1.12.61-7.61,0.61-8h0a1.29,1.29,0,0,1,0-.17c0.42-2.16.89-4.1,1.41-5.84h0c0.73-.21,1.91-5.09,2-5.39h0a26,26,0,0,1,1.36-2.63,3.46,3.46,0,0,0,1.46-1.6c0.48-.79.87-1.59,0.91-1.68h0C284,173.8,286.7,173.79,286.7,173.79Z" transform="translate(-30.25 -91.26)" style="fill-rule:evenodd;fill:url(#Áåçûìÿííûé_ãðàäèåíò_26)"/><path d="M273.74,194.55a0,0,0,0,0,0,0,78.84,78.84,0,0,0,1.5,10.74c-1.22-.57-2-2.53-2.11-2.69h0c0.6-1.12.62-7.61,0.61-8v0Z" transform="translate(-30.25 -91.26)" style="fill-rule:evenodd;fill:url(#Áåçûìÿííûé_ãðàäèåíò_17-2)"/><path d="M277.17,183.14c-1,4.8-.77,15.31-0.77,15.31-1.72-2.8-1.24-9.65-1.22-9.9h0c0.74-.2,1.91-5.09,2-5.4h0Z" transform="translate(-30.25 -91.26)" style="fill-rule:evenodd;fill:url(#Áåçûìÿííûé_ãðàäèåíò_17-3)"/><path d="M280.91,177.22c0,0.19-.68,7.25-1.2,7.13s-1.15-3.69-1.18-3.84h0c0.81-.09,2.28-3.09,2.37-3.28h0Z" transform="translate(-30.25 -91.26)" style="fill-rule:evenodd;fill:url(#Áåçûìÿííûé_ãðàäèåíò_17-4)"/><path d="M286.7,173.79s-3.76,25.37-5.46,29.59c-1.18,2.93-6.75,5.41-8.11-.78,0,0,1.5,9.83,10.7,13Z" transform="translate(-30.25 -91.26)" style="fill:#7c1b40;fill-rule:evenodd;opacity:0.2"/><path d="M280.74,218.7l19-54.17s-3.79-1.28-6.31,1.15c-0.5.48-1.39,2.4-2.51,5.19,0.06,0.8-1.33,3.77-1.8,4.74l0,0.07c-0.61,1.67-1.25,3.47-1.9,5.35h0a0.71,0.71,0,0,0,0,.13h0a11.81,11.81,0,0,1-1,2.94v0l-0.26.78h0c-0.71,2.08-1.41,4.21-2.09,6.3h0l-0.13.4h0c-0.18.55-.36,1.1-0.53,1.65v0c-0.15.46-.29,0.92-0.43,1.37h0c-1,3.12-1.89,6.08-2.63,8.61-0.31,1.08-.59,2.07-0.84,3h0a31.47,31.47,0,0,0-1.1,4.91C277.83,217.2,280.74,218.7,280.74,218.7Z" transform="translate(-30.25 -91.26)" style="fill-rule:evenodd;fill:url(#Áåçûìÿííûé_ãðàäèåíò_26-2)"/><path d="M289,175.76l0-.08a57.2,57.2,0,0,1,4.37-6.73c-1.18.17-2.54,1.93-2.54,1.93,0.06,0.8-1.33,3.77-1.8,4.74Z" transform="translate(-30.25 -91.26)" style="fill-rule:evenodd;fill:url(#Áåçûìÿííûé_ãðàäèåíò_96)"/><path d="M285.83,184.91a60.14,60.14,0,0,1,3.82-5.74c-1,.16-2.24,1.55-2.49,1.86h0l0,0.06a0.56,0.56,0,0,1,0,.07h0a11.81,11.81,0,0,1-1,2.94v0Z" transform="translate(-30.25 -91.26)" style="fill-rule:evenodd;fill:url(#Áåçûìÿííûé_ãðàäèåíò_96-2)"/><path d="M282.63,194.7a61.83,61.83,0,0,1,3.54-5.26,5.22,5.22,0,0,0-2.43,1.78h0l-0.12.14a1.2,1.2,0,0,1,0,.26h0a9,9,0,0,1-.53,1.65v0C282.92,193.79,282.77,194.24,282.63,194.7Z" transform="translate(-30.25 -91.26)" style="fill-rule:evenodd;fill:url(#Áåçûìÿííûé_ãðàäèåíò_96-3)"/><path d="M279.16,206.3c1.54-2.51,3.2-4.68,3.2-4.68a5,5,0,0,0-2.36,1.7C279.69,204.39,279.4,205.39,279.16,206.3Z" transform="translate(-30.25 -91.26)" style="fill-rule:evenodd;fill:url(#Áåçûìÿííûé_ãðàäèåíò_96-4)"/><path d="M294.78,164.85s3.53-1.17-4.68,24.69-10.6,27.95-10.6,27.95a3.68,3.68,0,0,0,1.23,1.21l19-54.17S296.86,163.63,294.78,164.85Z" transform="translate(-30.25 -91.26)" style="fill:#7c1b40;fill-rule:evenodd;opacity:0.2"/><path d="M286.49,185.54a1.39,1.39,0,0,0-.7,1.24A1.7,1.7,0,0,0,286.49,185.54Z" transform="translate(-30.25 -91.26)" style="fill:#ffc591;fill-rule:evenodd"/><path d="M280,205.88a1.46,1.46,0,0,0,.17,1.45A1.81,1.81,0,0,0,280,205.88Z" transform="translate(-30.25 -91.26)" style="fill:#ffc591;fill-rule:evenodd"/><path d="M278.91,211.15a1.46,1.46,0,0,0,.17,1.45A1.8,1.8,0,0,0,278.91,211.15Z" transform="translate(-30.25 -91.26)" style="fill:#ffc591;fill-rule:evenodd"/><path d="M289.32,182.14a1.39,1.39,0,0,0-.7,1.24A1.7,1.7,0,0,0,289.32,182.14Z" transform="translate(-30.25 -91.26)" style="fill:#ffc591;fill-rule:evenodd"/><path d="M282.39,196.91a1.39,1.39,0,0,0-.7,1.24A1.71,1.71,0,0,0,282.39,196.91Z" transform="translate(-30.25 -91.26)" style="fill:#ffc591;fill-rule:evenodd"/><path d="M284.39,194.27a1.39,1.39,0,0,0-.7,1.24A1.7,1.7,0,0,0,284.39,194.27Z" transform="translate(-30.25 -91.26)" style="fill:#ffc591;fill-rule:evenodd"/><path d="M289,177.15a1.37,1.37,0,0,0-.23,1.4A1.68,1.68,0,0,0,289,177.15Z" transform="translate(-30.25 -91.26)" style="fill:#ffc591;fill-rule:evenodd"/><path d="M294,166.34a1.37,1.37,0,0,0-.23,1.4A1.68,1.68,0,0,0,294,166.34Z" transform="translate(-30.25 -91.26)" style="fill:#ffc591;fill-rule:evenodd"/><polygon points="236.49 100.52 233.56 101.15 231.09 100.52 231.09 131.92 234.91 131.92 236.49 100.52" style="fill:#b84054;fill-rule:evenodd"/><path d="M286.67,223.18s2-15.72,5.08-26.76c0,0-14.12-5.12-25-4.64,0,0-1.94,20.08-1.59,31.4h21.52Z" transform="translate(-30.25 -91.26)" style="fill:#ffa26a;fill-rule:evenodd"/><path d="M278,163.4a8.86,8.86,0,0,1-3.74,2.55,2.09,2.09,0,0,1-2.69-1.17S277.83,163.57,278,163.4Z" transform="translate(-30.25 -91.26)" style="fill:#de676c"/><path d="M264.94,166.74s0.07,0.72-1.15.93-1.65-1.49-1.65-1.49Z" transform="translate(-30.25 -91.26)" style="fill:#de676c"/><path d="M259.86,158.36s1-.59,3.25,2.51c0,0-1.17-3.77-3.29-4.26A2.22,2.22,0,0,0,259.86,158.36Z" transform="translate(-30.25 -91.26)" style="fill:url(#Áåçûìÿííûé_ãðàäèåíò_138)"/><path d="M271.22,159.53a2.68,2.68,0,0,1,2.74-1.16c1.58,0.23,3.73,2.34,4.41,3.57C278.36,161.94,273.66,159.29,271.22,159.53Z" transform="translate(-30.25 -91.26)" style="fill:#de676c"/><path d="M266.81,153.72s2.7,0.24,5.33.17a5.49,5.49,0,0,1,4.22,2.06,5.07,5.07,0,0,0-3.39-1c-2.23,0-3.88.39-4.5,0.32C267.57,155.14,266.81,153.72,266.81,153.72Z" transform="translate(-30.25 -91.26)" style="fill:url(#Áåçûìÿííûé_ãðàäèåíò_138-2)"/><path d="M264.24,163.83s-1.43-3-2.22-3.46-0.85,2.22-.85,2.22Z" transform="translate(-30.25 -91.26)" style="fill:#de676c"/><path d="M278.36,161.94c0.72,1.08-2.22,3.53-4.66,3.75-1.92.17-2.83-1.61-3-2.83-0.24-1.58.15-3.22,0.9-3.69S276.72,159.47,278.36,161.94Z" transform="translate(-30.25 -91.26)" style="fill:#e4dbff"/><path d="M264.8,167c0.68-1-.33-3.09-1.28-4.2s-2-1.81-2.44-1.41,1,4.93,1.4,5.45A2.49,2.49,0,0,0,264.8,167Z" transform="translate(-30.25 -91.26)" style="fill:#e4dbff"/><path d="M278.36,161.94a9.2,9.2,0,0,0-7.14-2.41l-0.27.5s-0.77-1-.58-1.15S275.92,158.48,278.36,161.94Z" transform="translate(-30.25 -91.26)" style="fill:#6b2430"/><path d="M264.36,164.07a7.05,7.05,0,0,0-2.18-2.27c-1.1-.51-1,1.14-1,1.14a5.79,5.79,0,0,1-.28-1.95C261,160.64,263.29,161.66,264.36,164.07Z" transform="translate(-30.25 -91.26)" style="fill:#6b2430"/><path d="M274.35,159.74s-0.87,4.58-3.39,4.08a4.84,4.84,0,0,1,.25-4.3A5.06,5.06,0,0,1,274.35,159.74Z" transform="translate(-30.25 -91.26)" style="fill:#6b2430"/><path d="M262.42,161.94s1.12,2.94-.38,4a17.42,17.42,0,0,1-1-3.35C261,161.49,261.86,161.5,262.42,161.94Z" transform="translate(-30.25 -91.26)" style="fill:#6b2430"/><circle cx="243.43" cy="70.54" r="0.52" style="fill:#fff"/><circle cx="232.57" cy="72.82" r="0.33" style="fill:#fff"/><path d="M265.12,166.47a26,26,0,0,0-1.53,2.53c-0.11.4,1.69,1.67,2.53,1.56a3.84,3.84,0,0,0,1.62-1,2.32,2.32,0,0,1,.7-0.13c0.1,0,1.12-1.1.43-1.92a0.93,0.93,0,0,1-.18.9c-0.36.31-1.72,0-2.93,0.3s-1.82.62-2,.43S265.12,166.47,265.12,166.47Z" transform="translate(-30.25 -91.26)" style="opacity:0.58;mix-blend-mode:multiply;fill:url(#Áåçûìÿííûé_ãðàäèåíò_133-5)"/><path d="M268.43,169.49a2.5,2.5,0,0,0-1.33.63S267.87,169.09,268.43,169.49Z" transform="translate(-30.25 -91.26)" style="fill:#a64a4c;fill-rule:evenodd"/><path d="M268.59,167.22a2,2,0,0,1,0,2.15A1.28,1.28,0,0,0,268.59,167.22Z" transform="translate(-30.25 -91.26)" style="fill-rule:evenodd;opacity:0.58;mix-blend-mode:multiply;fill:url(#Áåçûìÿííûé_ãðàäèåíò_133-6)"/><path d="M267.91,168.61a8.87,8.87,0,0,0-2.11.5c-1.2.43-1.87,0.27-2,.08a4.06,4.06,0,0,0,1.77-.36A5,5,0,0,1,267.91,168.61Z" transform="translate(-30.25 -91.26)" style="fill-rule:evenodd;opacity:0.30000000000000004;mix-blend-mode:multiply;fill:url(#Áåçûìÿííûé_ãðàäèåíò_133-7)"/><path d="M267.32,168.09c0.21-.17-0.4-0.37-0.8-0.16s-0.51.33-.47,0.42A2.14,2.14,0,0,0,267.32,168.09Z" transform="translate(-30.25 -91.26)" style="fill:#fff;fill-rule:evenodd;mix-blend-mode:soft-light"/><path d="M272.51,169.61s-1.67,3-3.55,3.59a4.16,4.16,0,0,1-3.13-.49l1.27,0.66a2.7,2.7,0,0,0,2.07.47C270.58,173.3,272.51,169.61,272.51,169.61Z" transform="translate(-30.25 -91.26)" style="fill:#db585d"/><path d="M262.17,166.93a3.55,3.55,0,0,1,0,.57,2.51,2.51,0,0,0,1.21.61,2,2,0,0,0,1.66-1.94c0-1-2-6-2.7-7.14,0,0-2.08-2.43-1.15-5.05s4.86-4.14,7.7-4,4.82,4.32,4.82,4.32-5.48.11-6.87-.57c0,0,2,11,4.94,12.45,2.36,1.18,7.36-1.4,8.78-1.44s1.47,3.68.37,6.62c-1,2.76-5.83,5.5-6.43,5.84l0,0a11.57,11.57,0,0,0,3-1.28,5.63,5.63,0,0,0,.6-0.36c0.25-.15.51-0.33,0.77-0.52a15.74,15.74,0,0,0,4.68-5.48,48.45,48.45,0,0,1,.23-5.5c0.15-.76.46-4.18,0.71-7.11,0.22-2.44.38-4.56,0.38-4.56l-10.06-4.77-1.91.13-7.91.56a19,19,0,0,0-2.59,1.16c-1.8,1.89-2.45,4.7-2.52,7.81C259.73,161,262.1,165,262.17,166.93Z" transform="translate(-30.25 -91.26)" style="fill-rule:evenodd;opacity:0.58;mix-blend-mode:multiply;fill:url(#Áåçûìÿííûé_ãðàäèåíò_133-8)"/><path d="M271.53,223.18l0.36,2.09,0,0.16,0.63,3.7v0a8.3,8.3,0,0,0,.62,2.12c0.8,1.14,5.45,1.27,10.5.7s9.08-1.88,9.08-2.59c-2.54,1.51-17.38,3-18.41,2s-1.21-4.06-1.21-4.06,7.13,2.17,11.68.65a9.94,9.94,0,0,0,5.94-4.81h0c-0.15-.56-0.3-1.15-0.45-1.81l-18.67,1.8h-0.1Z" transform="translate(-30.25 -91.26)" style="fill:#9c2c6c;fill-rule:evenodd;opacity:0.4;mix-blend-mode:multiply"/><path d="M259.83,158.48A13.38,13.38,0,0,1,261,152a3.94,3.94,0,0,1,2.69-2,8.24,8.24,0,0,1,4.58-1.39h0.05c5.28,0,10.63,4.66,11.94,9.07,1.37,4.58,3.49,6.3,3.49,6.3a7.13,7.13,0,0,1,3.22-3.55c1.94-3,2.85-10.19-.75-14.06l-0.18-.2-0.2-.19a0.12,0.12,0,0,0,0,0,7.62,7.62,0,0,0-1.94-1.29c-5.77-2.7-13.64-3.12-17-.33a46.17,46.17,0,0,0-4.17,3.93c-2.22,2.06-5.21,1.94-5.24,3.81S259.83,158.48,259.83,158.48Z" transform="translate(-30.25 -91.26)" style="fill:url(#Áåçûìÿííûé_ãðàäèåíò_286-2)"/><path d="M263.66,150.09s2.07-3.57,3.84-3.32A14.39,14.39,0,0,1,277.64,153c5.31,8.29,7.94,8.49,7.94,8.49a6.23,6.23,0,0,1,1.65-1,49.5,49.5,0,0,1-9.15-8c-3.76-4.42-7.48-8.43-9.09-8.78s-5.35,4.17-7,5.1-4.23,1.81-4.58,3,0.54,3.76,0,6.65-4.52,11.27.88,17.43c0,0-2.12-8.13-1.17-14.51s2.18-9.16,3.25-9.88A16.56,16.56,0,0,1,263.66,150.09Z" transform="translate(-30.25 -91.26)" style="fill:url(#Áåçûìÿííûé_ãðàäèåíò_147)"/><path d="M288.05,158s-8.19-4.47-13.3-9.19c0,0,6.78,6,13.62,7.83Z" transform="translate(-30.25 -91.26)" style="fill:#ffded6;opacity:0.5;mix-blend-mode:soft-light"/><path d="M288.65,153.72S280.35,152,274.08,148l-1.25-1.29s4.1,4.05,15.82,6.61v0.36Z" transform="translate(-30.25 -91.26)" style="fill:#ffded6;opacity:0.5;mix-blend-mode:soft-light"/><path d="M268.3,148.7c5.28,0,10.63,4.66,11.94,9.07,1.37,4.58,3.49,6.3,3.49,6.3a7.13,7.13,0,0,1,3.22-3.55c1.94-3,2.85-10.19-.75-14.06,0.6,0.71,2.6,4,.21,4.8-4.08,1.3-13-3.94-13-3.94s4.13,4.13,1.4,2.52A8.08,8.08,0,0,0,268.3,148.7Z" transform="translate(-30.25 -91.26)" style="fill:#680463;fill-rule:evenodd;opacity:0.4;mix-blend-mode:multiply"/><path d="M290.43,201.65s2.91,6.14,4.12,8.06c0,0-3.32.71-4.61,1.87,0,0-7.83,4.42-11.16,4.2a11.47,11.47,0,0,1-5.44-1.72l-0.48,9.07-11.53,0c-0.62-.84.38-16.88,0-23.85l3.75,5.5,0.88-3.72s8.18,10.73,14.78,12.11a6.62,6.62,0,0,0,8.13-4.76Z" transform="translate(-30.25 -91.26)" style="fill:#7c0477;fill-rule:evenodd;opacity:0.4;mix-blend-mode:multiply"/><path d="M300.06,303.19s-3.92,3.07-11.56-.41l0.75,1.48s8.19,1.57,10.83.18Z" transform="translate(-30.25 -91.26)" style="fill:#ff75c7;fill-rule:evenodd"/><path d="M300.06,306.16s-8.34-1.21-11.32-.59l-0.53.37s7.89-.36,12.34.75Z" transform="translate(-30.25 -91.26)" style="fill:#ff75c7;fill-rule:evenodd"/><path d="M273.11,215s2.41,7,1.1,10.4A11.32,11.32,0,0,1,272,219.2c-0.21-3.81.55-4.69,0.55-4.69Z" transform="translate(-30.25 -91.26)" style="fill:#522e7b;fill-rule:evenodd"/><path d="M258.44,212.15c0.17,0.41.73,0.82,0.82,1.13a17.18,17.18,0,0,0,.58,1.66c0.16,0.32-.05,1,0.18,1.54a3.43,3.43,0,0,0,.93,1.67,1,1,0,0,0,.38.09c0.48,0,1.31,0,2.34-.1h0c0.76,0,1.63-.09,2.56-0.06h0.14a10.67,10.67,0,0,1,1.12.06A23.11,23.11,0,0,1,274,220L273.11,215s-2.93-.47-3.67-1.16a4,4,0,0,1-.58-2.07,5.33,5.33,0,0,0-.51-2.29,20.86,20.86,0,0,0-2.95-1.67,11,11,0,0,1-1.47-1c-1.38-1.14-1.74-3.51-2.14-3.62-0.22-.07-0.48.49-0.65,1.23v0a0.2,0.2,0,0,1,0,.07s0,0.06,0,.11,0,0.23-.05.35,0,0.1,0,.15a6.37,6.37,0,0,0-.06,1.14c0.09,1.36,2.13,1.74,2.72,2.4a1.38,1.38,0,0,1,.43,1.4,6.26,6.26,0,0,1-3.56,0l0.14-1.34a12.35,12.35,0,0,0-2.39,1.06A4.23,4.23,0,0,0,258.44,212.15Z" transform="translate(-30.25 -91.26)" style="fill:#ff8e65"/><path d="M264.79,292.06a92.64,92.64,0,0,1-10.07-1.61,7.23,7.23,0,0,1,0,3.11s6.77,1.65,9.89.9Z" transform="translate(-30.25 -91.26)" style="fill:#ff75c7;fill-rule:evenodd"/><path d="M271.53,219a15.31,15.31,0,0,0,2.29,7.51c10.53-.48,20.4-5.88,20.84-7.14a15.53,15.53,0,0,0,.95-7.08c-0.38-3.68-7.27,0-7.27,0-0.69.62-7.83,2.78-10.57,2.5a22.18,22.18,0,0,1-4.42-.76,4.48,4.48,0,0,0-1.22.75l0.72,0.29c0.95,2.6,1.92,9.71,1.14,9.68s-2-5.59-2-5.59Z" transform="translate(-30.25 -91.26)" style="fill:#dfdbe8;fill-rule:evenodd"/><path d="M273.82,226.55c10.53-.48,20.4-5.88,20.84-7.14C294.66,219.41,284.24,225.41,273.82,226.55Z" transform="translate(-30.25 -91.26)" style="fill:#d74a81;fill-rule:evenodd;opacity:0.4;mix-blend-mode:multiply"/><path d="M294.9,263.16s-4.92-11.22-6-15.46l3.89,18.66C293,265.48,294.67,264,294.9,263.16Z" transform="translate(-30.25 -91.26)" style="fill:#900477;fill-rule:evenodd;opacity:0.4;mix-blend-mode:multiply"/><path d="M289,274.18s0.12,2.69-1.21,3.55A37.48,37.48,0,0,0,289,274.18Z" transform="translate(-30.25 -91.26)" style="fill:#7c0477;fill-rule:evenodd;opacity:0.4;mix-blend-mode:multiply"/><path d="M288.51,305.74c4.57-.19,10.95-0.94,10.95-0.94s-2.45-.1-6-0.57a12.58,12.58,0,0,1-5-1.45c0,0.35.85,1.45,1,2A2.08,2.08,0,0,1,288.51,305.74Z" transform="translate(-30.25 -91.26)" style="fill:#900477;fill-rule:evenodd;opacity:0.4;mix-blend-mode:multiply"/><path d="M285.53,308.62c0.26,1.2,4,4.68,4,4.68s6.85,4,7.42,4.2a10.45,10.45,0,0,0,2.84-.48s1.32,0.06,1.42-.35v0a9.75,9.75,0,0,1-2.58-.36c-1.66-.45-2.89-3.6-2.89-3.6a13.23,13.23,0,0,1,4.33,3c0-.18,2.43-4.15,2.56-6A22.83,22.83,0,0,1,285.53,308.62Z" transform="translate(-30.25 -91.26)" style="fill:#900477;fill-rule:evenodd;opacity:0.4;mix-blend-mode:multiply"/><path d="M250.23,308.65a12.82,12.82,0,0,0,.5,2.47l5,5.55s0-.15,1.55-0.31a3.32,3.32,0,0,0,2.29-1.9,4.32,4.32,0,0,0,.71-1.6c0-.62-0.77-0.58-0.71-1.19s3.11-4.12,4.11-10.23,1-9.87,1.32-10.76a7,7,0,0,1,1-1.54,12,12,0,0,1-5,.74,18,18,0,0,1-6.5-2.12,38.12,38.12,0,0,0,6.35,3.87c2.66,1.09,3.08,7.73,2,10.21s-4.07,4.57-4.31,6.18-0.8,1.91-2.18,1.67S251.19,307.67,250.23,308.65Z" transform="translate(-30.25 -91.26)" style="fill:#900477;fill-rule:evenodd;opacity:0.4;mix-blend-mode:multiply"/><path d="M232.95,323.3c5.63,1.33,27.16,0,27.16,0a19.41,19.41,0,0,0,0-5c-0.21-2.08-.55-3.84-0.55-3.84s-1.59,1.14-2.48,1-3-3.06-3.6-3.72-2.75-.6-2.75-0.6a25.75,25.75,0,0,1-6.45,5.57,16.57,16.57,0,0,1-3.84,2c-1.14.19-5.84-.5-6.92,1A5,5,0,0,0,232.95,323.3Z" transform="translate(-30.25 -91.26)" style="fill:#b53164;fill-rule:evenodd"/><path d="M240.44,318.69s2.68,1.26,3.32,3h12.13a10.83,10.83,0,0,1,4-5.06,27.86,27.86,0,0,1,1,8.22l-28.8-.44s-0.68-4.29.77-5.49S240.44,318.69,240.44,318.69Z" transform="translate(-30.25 -91.26)" style="fill:#ffa7a0;fill-rule:evenodd"/><path d="M279.39,321.76l0.52,3.12h20.8s-0.24-3.41-.48-5.16c-0.06-.48-0.12-0.89-0.17-1.25h0c-0.14-1-.24-1.45-0.24-1.45a12.55,12.55,0,0,1-2.84.48c-0.38-.15-1.05-3-2.42-3.89s-4.78-.9-4.93-0.52a10.87,10.87,0,0,1-1.25,2.58,7.87,7.87,0,0,1-3.1,2.82S280.48,318.73,279.39,321.76Z" transform="translate(-30.25 -91.26)" style="fill-rule:evenodd;fill:url(#Áåçûìÿííûé_ãðàäèåíò_301)"/><path d="M285.26,318.49s6.74,0,9.77,4.25h4l1.15-3.48a17.87,17.87,0,0,1,.54,5.62H279.91l-0.52-3.13S279.91,318.16,285.26,318.49Z" transform="translate(-30.25 -91.26)" style="fill:#ffded6;fill-rule:evenodd"/><path d="M244.28,316.69c1.23,0.05,5.67.27,10.34,0.84,3.1,0.37,4.69.62,5.49,0.77-0.21-2.08-.55-3.84-0.55-3.84s-1.59,1.14-2.48,1-3-3.06-3.6-3.72-2.75-.6-2.75-0.6A25.75,25.75,0,0,1,244.28,316.69Z" transform="translate(-30.25 -91.26)" style="fill:#7c0477;fill-rule:evenodd;opacity:0.4;mix-blend-mode:multiply"/><path d="M288.37,315.67c1.5-.13,5.47-0.32,7,1a8.88,8.88,0,0,0,4.67,1.8c-0.14-1-.24-1.45-0.24-1.45a12.55,12.55,0,0,1-2.84.48c-0.38-.15-1.05-3-2.42-3.89s-4.78-.9-4.93-0.52A10.87,10.87,0,0,1,288.37,315.67Z" transform="translate(-30.25 -91.26)" style="fill:#7c0477;fill-rule:evenodd;opacity:0.4;mix-blend-mode:multiply"/><path d="M254.33,295.31a24.12,24.12,0,0,0,9.91,2.12l-0.09.73s-6.31-.56-9.92-2.44Z" transform="translate(-30.25 -91.26)" style="fill:#ff75c7;fill-rule:evenodd"/><path d="M258.71,212.12a4.07,4.07,0,0,0,1,1.31,9.53,9.53,0,0,0,.52,1.45,3.78,3.78,0,0,1,.2,1.8,1.34,1.34,0,0,0,1.31,1.44,18.8,18.8,0,0,0,1.95,0h0c1.07,0,2.19,0,2.56-.06h0.14a10.67,10.67,0,0,1,1.12.06A23.11,23.11,0,0,1,274,220L273.11,215s-2.93-.47-3.67-1.16a4,4,0,0,1-.58-2.07,5.12,5.12,0,0,1-3-1.58,2.91,2.91,0,0,1-.47-2.38,11,11,0,0,1-1.47-1s-1.75.78-2.49,0.07a2.26,2.26,0,0,1-.41-1.76,6.37,6.37,0,0,0-.06,1.14c0.09,1.36,2.13,1.74,2.72,2.4a1.38,1.38,0,0,1,.43,1.4,6.26,6.26,0,0,1-3.56,0,5.93,5.93,0,0,0-1.85.19A2.41,2.41,0,0,0,258.71,212.12Z" transform="translate(-30.25 -91.26)" style="fill:#cb6ba5;fill-rule:evenodd;opacity:0.28;mix-blend-mode:multiply"/><path d="M258.44,212.15c0.17,0.41.73,0.82,0.82,1.13a17.18,17.18,0,0,0,.58,1.66c0.16,0.32-.05,1,0.18,1.54a3.43,3.43,0,0,0,.93,1.67,1,1,0,0,0,.38.09,1.59,1.59,0,0,1-.36-0.62c-0.27-.74-0.34-1.75-0.61-2.34s-0.67-1.85-.67-1.85Z" transform="translate(-30.25 -91.26)" style="fill:#9a27af;fill-rule:evenodd;opacity:0.58;mix-blend-mode:multiply"/><path d="M273.13,219.58a11.64,11.64,0,0,0-.28-4.47,19,19,0,0,1,1.08,4.8Z" transform="translate(-30.25 -91.26)" style="fill:#b84054;fill-rule:evenodd"/><path d="M235.77,181.5a61,61,0,0,0,3-9.6s1.35,13.86.75,18.72C239.51,190.62,236.33,183.3,235.77,181.5Z" transform="translate(-30.25 -91.26)" style="fill:#9c2c6c;fill-rule:evenodd;opacity:0.4;mix-blend-mode:multiply"/><path d="M258.51,257c1,2.68,5.08,9.19,5.08,9.19,5.12,1.16,8.76,2.46,11.43,4.28a2.64,2.64,0,0,0,.63.31s-1.74-10.2-4-13.94-7.36-16.16-9.2-15.92S257.52,254.36,258.51,257Z" transform="translate(-30.25 -91.26)" style="fill:#ba059a;fill-rule:evenodd;opacity:0.18;mix-blend-mode:multiply"/><path d="M284.45,277.73a42.57,42.57,0,0,1,6,9.66c2.13,5.09.79,15.51,0.79,15.51s-0.69-8.76-2.4-14.39A69,69,0,0,0,284.45,277.73Z" transform="translate(-30.25 -91.26)" style="fill:#900477;fill-rule:evenodd;opacity:0.14;mix-blend-mode:multiply"/><path d="M223.12,153.24a3.94,3.94,0,0,0,.31,1.13,14.7,14.7,0,0,0,3.64,5.37c2.6,2.4,6,4.77,6.53,6.1,0,0,3-1.59,3.49-.15s0,4.43,0,4.43,0.93-.06,1.67,1.78,0,10.53,1.66,12.76,4.67-.93,5.21-0.94,1.58,2.13,3.12,2.23,3.35-1.4,4.4-1.6,3,0.42,6,.11,6.53-4,6.75-4.21c-3.25,1.47-7.64,3.55-9.42,3.46-2.65-.13-3.46-0.46-4-0.33s-0.56,1.09-1.8,1.25a2.49,2.49,0,0,1-.62,0c-1.85-.12-3.22-2.16-4-2.11s-0.85.62-1.23,0.62-5.16-10.14-5.57-12.08a5.61,5.61,0,0,1-.12-1.46h0c0.05-1,.34-1.6.12-1.92a1.15,1.15,0,0,0-1.12-.12c-0.23,0-.41.12-0.42,0.12a6,6,0,0,1-.15-1.4c0.09-1.76,2.44-4.37,2.16-5.89s-2-2.32-3.54-3.58-2.37-3.88-2.7-4-1.05,1.25-.82,2.54,2,1.79,2.54,2.29a2.73,2.73,0,0,1,.73.93,3.84,3.84,0,0,1-.74.08,4.71,4.71,0,0,1-2.57-.72,5.63,5.63,0,0,1-1.78-2.36,11.11,11.11,0,0,0-1.32-2.46c-0.92-1-2.65-1.44-2.87-1.2a2.3,2.3,0,0,0,.47.93l0,0c1.1,1.72,3.61,5.11,3.61,5.11l-0.58-.09a6.79,6.79,0,0,1-1-.85h0a9.44,9.44,0,0,1-1.13-1.39c-1-1.53-1.55-2.48-2.91-3.09a3,3,0,0,0-2.49-.29A2,2,0,0,0,223.12,153.24Z" transform="translate(-30.25 -91.26)" style="fill:#ffba75;fill-rule:evenodd;mix-blend-mode:soft-light"/><path d="M266.31,144.85h0l0,0.27s8.07-1.83,14.4,1.33,4.91,15,4.91,15a8,8,0,0,1,1-.65,5.1,5.1,0,0,0-.89.63c0.52-.09,1.75.28,2.63,2.23,0.95,2.11-.95,6.72-1.14,7.18a2.68,2.68,0,0,0,1.65-.89c1.61-1.83,2.37-5.9.8-8.09a4,4,0,0,0-2.47-1.31l-0.2-.14a11,11,0,0,0,1-2.43l0-.1c0.11-.4.21-0.81,0.29-1.23v0a15,15,0,0,0,.28-2.88v-0.36h0a10.4,10.4,0,0,0-2.44-6.9l-0.18-.2-0.2-.19,0,0a7.63,7.63,0,0,0-1.94-1.29c-5.77-2.7-13.64-3.12-17-.33Z" transform="translate(-30.25 -91.26)" style="fill:#ffba75;fill-rule:evenodd;mix-blend-mode:soft-light"/><path d="M266.31,144.85h0l0,0.27s8.07-1.83,14.4,1.33,4.91,15,4.91,15a8,8,0,0,1,1-.65,5.1,5.1,0,0,0-.89.63c0.52-.09,1.75.28,2.63,2.23,0.95,2.11-.95,6.72-1.14,7.18a2.68,2.68,0,0,0,1.65-.89c1.61-1.83,2.37-5.9.8-8.09a4,4,0,0,0-2.47-1.31l-0.2-.14a11,11,0,0,0,1-2.43l0-.1c0.11-.4.21-0.81,0.29-1.23v0a15,15,0,0,0,.28-2.88v-0.36h0a10.4,10.4,0,0,0-2.44-6.9l-0.18-.2-0.2-.19,0,0a7.63,7.63,0,0,0-1.94-1.29c-5.77-2.7-13.64-3.12-17-.33Z" transform="translate(-30.25 -91.26)" style="fill:#ffba75;fill-rule:evenodd;mix-blend-mode:soft-light"/><path d="M290.86,230.5c1.19-.41,1.89-0.81,1.89-1.11,0-.6-1-2.23-2-6.2,0,0-1.88,2.39-1.88,2.44C289,226.22,291.6,229,290.86,230.5Z" transform="translate(-30.25 -91.26)" style="fill:#ffba75;fill-rule:evenodd;mix-blend-mode:soft-light"/><path d="M285.57,194.55s3.47,1.74,3.53,2.82,0.14,10,.14,10a4.72,4.72,0,0,1,1.3.83,25.09,25.09,0,0,1,4.12,11.24,15.53,15.53,0,0,0,.95-7.08,2.06,2.06,0,0,0-.18-0.65,13,13,0,0,0-.88-2h0c-0.41-.78-0.91-1.66-1.44-2.62l-0.23-.44a12.72,12.72,0,0,0,1.34-4,45.09,45.09,0,0,0-2.85-14.34l8.34-23.81a7.91,7.91,0,0,0-3.11-.28l0,0S289.93,185.87,285.57,194.55Z" transform="translate(-30.25 -91.26)" style="fill:#ffba75;fill-rule:evenodd;mix-blend-mode:soft-light"/><path d="M259.23,313.08a3.59,3.59,0,0,1-.91,1.63s2.41,6.61,2.55,10.18a36,36,0,0,0-.48-6.15,14.63,14.63,0,0,0-.48-2.07c-0.18-1.29-.35-2.21-0.35-2.21a4.33,4.33,0,0,0,.71-1.6c0-.62-0.77-0.58-0.71-1.19s3.11-4.12,4.11-10.23q0.28-1.77.48-3.27l0.09-.73c0.14-1.13.24-2.11,0.32-3v-0.06c0-.48.09-0.92,0.12-1.32l0.09-1a9.32,9.32,0,0,1,.21-1.46,7,7,0,0,1,1-1.54,5.93,5.93,0,0,0-1-1.39,32.92,32.92,0,0,0,.17-4.93c-0.13-3.74-.63-6.94-0.94-9.56,0,0-2.15,11-3.24,15.74l1.54,0.8a17,17,0,0,0-.82,4.86,128.58,128.58,0,0,1-3.38,16.46C257.85,312,259.16,312.54,259.23,313.08Z" transform="translate(-30.25 -91.26)" style="fill:#ffba75;fill-rule:evenodd;mix-blend-mode:soft-light"/><path d="M259.23,313.08a3.59,3.59,0,0,1-.91,1.63s2.41,6.61,2.55,10.18a36,36,0,0,0-.48-6.15,14.63,14.63,0,0,0-.48-2.07c-0.18-1.29-.35-2.21-0.35-2.21a4.33,4.33,0,0,0,.71-1.6c0-.62-0.77-0.58-0.71-1.19s3.11-4.12,4.11-10.23q0.28-1.77.48-3.27l0.09-.73c0.14-1.13.24-2.11,0.32-3v-0.06c0-.48.09-0.92,0.12-1.32l0.09-1a9.32,9.32,0,0,1,.21-1.46,7,7,0,0,1,1-1.54,5.93,5.93,0,0,0-1-1.39,32.92,32.92,0,0,0,.17-4.93c-0.13-3.74-.63-6.94-0.94-9.56,0,0-2.15,11-3.24,15.74l1.54,0.8a17,17,0,0,0-.82,4.86,128.58,128.58,0,0,1-3.38,16.46C257.85,312,259.16,312.54,259.23,313.08Z" transform="translate(-30.25 -91.26)" style="fill:#ffba75;fill-rule:evenodd;mix-blend-mode:soft-light"/><path d="M290.88,276.42c3.5,5.62,6,14.86,6.57,26.73a2.61,2.61,0,0,1,1.19,1.46c0.14,0.86,1,4.41.82,5.9s-1.44,6.94-1.44,6.94,2.67,4.9,2.69,7.41c0-.38,0-0.75,0-1.11a18.42,18.42,0,0,0-.58-4.49c0-.28-0.08-0.55-0.11-0.79h0c-0.14-.95-0.24-1.45-0.24-1.45s1.32,0.06,1.42-.35v0c0.05-.4-1.14-0.77-1.14-1s2.43-4.15,2.56-6a1.34,1.34,0,0,0,0-.5,6.3,6.3,0,0,0-2.08-2.5l-0.48-.53a2.61,2.61,0,0,1,0-.35c0-.34,0-0.86,0-1.37a12.32,12.32,0,0,0,0-1.25,2.06,2.06,0,0,0-.82-1.35l0,0.15a44,44,0,0,0-.1-10.45,38.43,38.43,0,0,0-4.89-15.32S290.48,274.32,290.88,276.42Z" transform="translate(-30.25 -91.26)" style="fill:#ffba75;fill-rule:evenodd;mix-blend-mode:soft-light"/><path d="M290.88,276.42c3.5,5.62,6,14.86,6.57,26.73a2.61,2.61,0,0,1,1.19,1.46c0.14,0.86,1,4.41.82,5.9s-1.44,6.94-1.44,6.94,2.67,4.9,2.69,7.41c0-.38,0-0.75,0-1.11a18.42,18.42,0,0,0-.58-4.49c0-.28-0.08-0.55-0.11-0.79h0c-0.14-.95-0.24-1.45-0.24-1.45s1.32,0.06,1.42-.35v0c0.05-.4-1.14-0.77-1.14-1s2.43-4.15,2.56-6a1.34,1.34,0,0,0,0-.5,6.3,6.3,0,0,0-2.08-2.5l-0.48-.53a2.61,2.61,0,0,1,0-.35c0-.34,0-0.86,0-1.37a12.32,12.32,0,0,0,0-1.25,2.06,2.06,0,0,0-.82-1.35l0,0.15a44,44,0,0,0-.1-10.45,38.43,38.43,0,0,0-4.89-15.32S290.48,274.32,290.88,276.42Z" transform="translate(-30.25 -91.26)" style="fill:#ffba75;fill-rule:evenodd;mix-blend-mode:soft-light"/><path d="M289.87,265.33c0.33,4.33,0,5.34,0,5.34s1.22-.16,2.48-0.43c0,0,0,0,0-.06a2.08,2.08,0,0,0,.43-0.12c0.56-.31-0.25-2.82,0-3.7s1.9-2.34,2.13-3.2-4.09-13.81-6.24-24.87c-0.29-1.51-.58-3.55-0.86-6,0,0-5.22,1.45-5.41,3.38S289.54,261,289.87,265.33Z" transform="translate(-30.25 -91.26)" style="fill:#ffba75;fill-rule:evenodd;mix-blend-mode:soft-light"/><path d="M176.22,162.22s-3.63,9.7-8.45,15A25.86,25.86,0,0,1,176.22,162.22Z" transform="translate(-30.25 -91.26)" style="fill:#a91338;fill-rule:evenodd"/><path d="M212,141.4l0.13,0.32a36.34,36.34,0,0,1-5.43,4.16,21,21,0,0,1-4.15,1h-0.16c-3.39.65-7.56,1.37-8.66,2.45-1.72,1.69-3.58,17.53-6.57,23s-8.2,7.74-9,7.74-7.79-4.5-10.4-10.9l3-9.38,0.56-1.78,0.47,0.53c1.28,1.43,4.81,5.29,6.07,5.92a4.5,4.5,0,0,1,1.7-2.4c1.31-.93,7.78-7.28,9.15-11.18,0.06-.16.1-0.32,0.14-0.47,1-3.84-1.95-7.67-.78-9.95,0.85-1.66,2.66-2,4.06-2.13,0.52-.06,1-0.1,1.33-0.18,1.27-.29,3.84-2.7,4.42-2.57s0.1,2.18-.52,3a4.59,4.59,0,0,1-2.41.83h0a8.76,8.76,0,0,0-1.91.4c-0.46.32-.43,0.94,0,1a39.41,39.41,0,0,0,8.09.06c2.41-.43,1.59-2.38,9-1.89a2.69,2.69,0,0,1,.59.56,6.32,6.32,0,0,1,1.72.42c0.49,0.28-.31,1.24-0.38,1.34h0Z" transform="translate(-30.25 -91.26)" style="fill:#ff8e65"/><path d="M212,141.39h0s-4.25-.6-6.81,2.64c0,0-6.68-2.09-9.49-1.06s-2.56,4.53-2.38,4.92,7.84-.79,9.08-1c-3.39.65-7.56,1.37-8.66,2.45-1.72,1.69-3.58,17.53-6.57,23s-8.2,7.74-9,7.74-7.79-4.5-10.4-10.9l3-9.38,1-1.25c1.28,1.43,4.81,5.29,6.07,5.92,0,0-3.19,9.76,0,11.32s8.31-3.56,10.39-12.14a30.45,30.45,0,0,0,.46-12.75c0.06-.16.1-0.32,0.14-0.47,1-3.84-1.95-7.67-.78-9.95,0.85-1.66,2.1-2.21,6-2.43,0.85,0.59.07,1.52,0.7,1.4l0.19,0a8.76,8.76,0,0,0-1.91.4c-0.46.32-.43,0.94,0,1a39.41,39.41,0,0,0,8.09.06c2.41-.43,1.59-2.38,9-1.89a2.69,2.69,0,0,1,.59.56,6.32,6.32,0,0,1,1.72.42C212.87,140.33,212.07,141.29,212,141.39Z" transform="translate(-30.25 -91.26)" style="fill-rule:evenodd;opacity:0.58;mix-blend-mode:multiply;fill:url(#Áåçûìÿííûé_ãðàäèåíò_133-9)"/><path d="M121.46,145.6a34.06,34.06,0,0,0,3.77,22.68S128.68,155.45,121.46,145.6Z" transform="translate(-30.25 -91.26)" style="fill:#423f15;fill-rule:evenodd"/><path d="M134.93,156.64c-2.29.69-4.67,1.24-6.88,1.67-4.52.89-8.25,1.32-8.73,1.59-2,1.09-2.64,8.34-2.73,14.63,0,3.05.05,5.89,0.19,7.68a2.07,2.07,0,0,0,0,.21,0.56,0.56,0,0,1,0,.11c0,0.34.06,0.64,0.09,0.88,0.49,3.9,1.2,9.4.45,10s-7.54,1.65-8,1.62-2.31.52-2.64,0.39a26.73,26.73,0,0,1-3-4.32,2.07,2.07,0,0,1,1.92-.52c0.65,0.3,1.33,2.8,1.33,2.8h0.31s0-5.9,1.13-7.59,4.1-1.59,4.16-2.37-2.92-4.74-4.94-12.29-1.3-16.39-.45-17.5,5.73-2.92,12.88-5.66c1.62-.62,3-1.22,4.23-1.76a34.29,34.29,0,0,0,5.92-3.24C133.82,145.52,134.93,156.64,134.93,156.64Z" transform="translate(-30.25 -91.26)" style="fill:#ff8e65"/><path d="M128,158.3c-4.52.89-8.25,1.32-8.73,1.59-2,1.09-2.64,8.34-2.73,14.63-0.21-8,2.1-18.12-.19-19.85s-9.3-1-9.3-1c0.84-1.11,5.73-2.92,12.88-5.66,1.62-.62,3-1.22,4.23-1.76Z" transform="translate(-30.25 -91.26)" style="fill-rule:evenodd;opacity:0.58;mix-blend-mode:multiply;fill:url(#Áåçûìÿííûé_ãðàäèåíò_133-10)"/><path d="M139.8,289.7a32.19,32.19,0,0,0,2.67,11.12l-5.86,2.85a126.89,126.89,0,0,1-3.31-13.58Z" transform="translate(-30.25 -91.26)" style="fill:url(#Áåçûìÿííûé_ãðàäèåíò_274-3)"/><path d="M141.88,297.91c-1.21-.22-3.06,2.91-4,4.47s-5,2-5.28,2.34-2.12,9.06-1.65,13.18c0,0,19.6,3.17,30.35,1a6.5,6.5,0,0,0-.65-5s-11.21-2.9-14.45-7.24A27.15,27.15,0,0,1,141.88,297.91Z" transform="translate(-30.25 -91.26)" style="fill:#2c7277;fill-rule:evenodd"/><path d="M152.39,218.12a107,107,0,0,1-5.29,29.68l-0.15.45a85.71,85.71,0,0,1-3.47,9c-0.43,1-1.3,1.65-1.65,3.12s-2.36,18.21-.86,29.33a22.53,22.53,0,0,1-7.28.8s-5.79-17.58-6.18-26.68,2.47-11.64,3.12-15.22-3.27-42.68-.84-47c0.65-1.16,2.47-2.79,4.78-4.57,6.31-4.84,16.3-10.69,16.3-10.69a113.67,113.67,0,0,1,1.46,15.8C152.5,206.52,152.56,211.86,152.39,218.12Z" transform="translate(-30.25 -91.26)" style="fill:#3e1d70;fill-rule:evenodd"/><path d="M152.39,218.12a107,107,0,0,1-5.29,29.68l-0.15.45s-3.73,1.1-4.85,3.53,1.39,5.46,1.39,5.46c-0.43,1-1.3,1.65-1.65,3.12s-2.36,18.21-.86,29.33a22.53,22.53,0,0,1-7.28.8s-5.79-17.58-6.18-26.68,2.47-11.64,3.12-15.22-3.27-42.68-.84-47c0.65-1.16,2.47-2.79,4.78-4.57l17.76,5.11C152.5,206.52,152.56,211.86,152.39,218.12Z" transform="translate(-30.25 -91.26)" style="fill:#600445;fill-rule:evenodd;opacity:0.4;mix-blend-mode:multiply"/><path d="M164.56,147.9c1.32,1.32,8.87,12.49,11.66,14.32,0,0-7.27,8.27-8.45,15a17.2,17.2,0,0,1-7.75-12C158.79,156.77,164.56,147.9,164.56,147.9Z" transform="translate(-30.25 -91.26)" style="fill:#817c2a;fill-rule:evenodd"/><path d="M170.37,123.67s-5.55,15.35-3.47,19.25c0,0-6.59-1.21-10.15-3.9s-13.25-2.67-13.25-2.67l6.31-14.14S168.89,121.94,170.37,123.67Z" transform="translate(-30.25 -91.26)" style="fill:#591527"/><path d="M174.73,113.87a75.86,75.86,0,0,0-4.94,11.32c-0.52-5.4,3.77-14.18.6-19.83-1.22-2.18-4.68-2.89-8.64-2.53a28.13,28.13,0,0,0-9,2.47c-0.53.25-1,.51-1.52,0.79-2.41,1.37-4.31,3.08-5.11,5-1.81,4.32-1.29,11.11-1.14,16.43a0,0,0,0,1,0,0c0.1,3.49,0,6.32-.94,7.41a5.14,5.14,0,0,1-2.11,1.35,13.79,13.79,0,0,1-6.08.38s3.69-.39,3.38-2.77-4.47-11.75-4.34-19c0-.41,0-0.79.06-1.16h0c0.6-6.27,5.11-7.67,11.18-10.55,1.09-.51,2.13-1,3.13-1.53a71.84,71.84,0,0,1,9.36-4.37,10.48,10.48,0,0,1,2.28-.47,4.37,4.37,0,0,1,1.46.12h0.07l0.49,0.16c2.24,0.91,3.9,3.69,7.61,7.12C173.53,107,177.26,109.58,174.73,113.87Z" transform="translate(-30.25 -91.26)" style="fill:url(#Áåçûìÿííûé_ãðàäèåíò_286-3)"/><path d="M147.65,129.23s-0.11,6.08-1.15,9.07c0,0,6.26,6.39,8.74,3.4,0,0-1.87-1.64-1.26-6.7A30.88,30.88,0,0,1,147.65,129.23Z" transform="translate(-30.25 -91.26)" style="fill:url(#Áåçûìÿííûé_ãðàäèåíò_274-4)"/><path d="M161.4,315.85s-20.95,2.55-28.1,0l-0.82,2.44s17.34,2.69,28.83.56A4.93,4.93,0,0,0,161.4,315.85Z" transform="translate(-30.25 -91.26)" style="fill:#ffbdb8;fill-rule:evenodd"/><path d="M117.33,193.42c-0.75.62-7.54,1.65-8,1.62s-2.31.52-2.64,0.39a26.73,26.73,0,0,1-3-4.32,2.07,2.07,0,0,1,1.92-.52c0.65,0.3,1.33,2.8,1.33,2.8h0.31s0-5.9,1.13-7.59,4.1-1.59,4.16-2.37c0,0,1.89,2,3.25,1.85,1.08-.1,1.09-2,1.05-2.76,0,0.34.06,0.64,0.09,0.88C117.37,187.3,118.08,192.8,117.33,193.42Z" transform="translate(-30.25 -91.26)" style="fill-rule:evenodd;opacity:0.58;mix-blend-mode:multiply;fill:url(#Áåçûìÿííûé_ãðàäèåíò_133-11)"/><path d="M170.37,123.67a5.49,5.49,0,0,0,.26,2.09c0.41,1.32,1.13,2.42,1,4.53-0.18,3.08-5.48,5.73-6.6,6.73-0.79.7-2.19,1.12-4.28,0.76h0a14.07,14.07,0,0,1-3-.92c-3.39-1.41-8.93-3.84-11-7.83a7.1,7.1,0,0,1-.45-1c-3.12-9.1-1.65-18.91,4.34-23.24a15,15,0,0,1,5.27-2.35c5.17-1.27,10.68-.25,12.6.92s4,5,4.46,8.81a9.36,9.36,0,0,1,0,1,0.06,0.06,0,0,1,0,0C172.89,116.79,170.53,121.3,170.37,123.67Z" transform="translate(-30.25 -91.26)" style="fill:#ff8e65"/><path d="M162.92,109.45a28.8,28.8,0,0,0-4.56.48,10.56,10.56,0,0,0-5.25,2.82,18.77,18.77,0,0,1,5.27-1.47,6.78,6.78,0,0,1,3,.26A2.14,2.14,0,0,0,162.92,109.45Z" transform="translate(-30.25 -91.26)" style="fill:url(#Áåçûìÿííûé_ãðàäèåíò_290)"/><path d="M169.13,116.8a5.65,5.65,0,0,1,2-1,1.08,1.08,0,0,1,1.3.77,10.19,10.19,0,0,0,.57-3.43S170.85,113.36,169.13,116.8Z" transform="translate(-30.25 -91.26)" style="fill:url(#Áåçûìÿííûé_ãðàäèåíò_290-2)"/><path d="M172.29,105.8h0a39.22,39.22,0,0,1-4.51-4.35,3.74,3.74,0,0,1,1,.06,3.86,3.86,0,0,1,1.72.8,4,4,0,0,1,.8.87A6.3,6.3,0,0,1,172.29,105.8Z" transform="translate(-30.25 -91.26)" style="fill:#ffae00;fill-rule:evenodd"/><path d="M188.75,107.2a2.91,2.91,0,0,1-1.34,1.36l0,0-0.41.22h0l-0.46.22-0.21.09-0.16.06a12.34,12.34,0,0,1-6.08.74c-3.74-.56-7.74-4.12-7.74-4.12h0l-1-2.62a9.44,9.44,0,0,1,2.13-1.74h0c0.74-.25,6.2,1.26,9.15,3.43A12.71,12.71,0,0,0,188.75,107.2Z" transform="translate(-30.25 -91.26)" style="fill:#ffae00;fill-rule:evenodd"/><path d="M180.86,92.41h0l0,0h0c-0.53.34-4.52,2-6.32,3.68s-4,6.16-4,6.16l-1.65-.48-0.07-.32c-0.19-.94-0.62-3.8.33-5.87v0h0c1.19-2.51,4.48-4.08,5.83-4.29A18.24,18.24,0,0,1,180.86,92.41Z" transform="translate(-30.25 -91.26)" style="fill:#ffae00;fill-rule:evenodd"/><path d="M125.28,291.06s3,6,3.34,8.32-1.11,6-1.11,6,4.75,3.19,9.89.85a124.18,124.18,0,0,1-3.71-14.83S127.73,292.3,125.28,291.06Z" transform="translate(-30.25 -91.26)" style="fill:url(#Áåçûìÿííûé_ãðàäèåíò_2)"/><path d="M167.16,175.3c-1.39,1.3-10,5-11,5.64s-5.28,5.38-5.28,5.38a17.18,17.18,0,0,1-18.67-5.75,4.91,4.91,0,0,1,.45-1.75c0.29-.53,1.39-0.28,1.94-0.11l0.34,0.11c1.56-4,1-18.34,1-18.34-3,.32-10.26,7.35-10.71,7.78l0,0c1.5-12-3.77-22.67-3.77-22.67,4.37,0.39,15-6.92,18.07-7.81h0a6.47,6.47,0,0,1,2.13-.25h0.14a6.92,6.92,0,0,1,1.52.29l0.22,0.07,0.72,0.24,0.08,0a1,1,0,0,0,.71.06,3.06,3.06,0,0,0,.62-0.45,2.76,2.76,0,0,0,.36-0.39l0,0h0.67a9.75,9.75,0,0,0,5,4.59c3.39,1.24,3.23-.56,3.23-0.56l-0.52-1,0.05,0.06c0.11,0.12.36,0.38,0.71,0.74l0.14,0.14a26,26,0,0,0,4.89,3.8h0a37.18,37.18,0,0,1,4.26,2.72c-1.13,7.46,3.22,23,3.22,23S168.55,174,167.16,175.3Z" transform="translate(-30.25 -91.26)" style="fill:#817c2a;fill-rule:evenodd"/><path d="M150.87,186.31c-3.49,10.39-8.9,15.94-12.8,18.75a18.52,18.52,0,0,1-4.77,2.63s1.78,7.32.73,19.21-2.77,20.64-2.7,23.24S130,258,130,258c-0.6,10.4,5,34.25,5,34.25-5.73,1.91-9.71,0-9.71,0a56.24,56.24,0,0,1-8.58-19c-2.26-10.41,2.81-13.57,2.59-19.3-0.1-2.45-3.51-9.69-7.19-18.13l0,0h0c-4.89-11.18-10.24-24.47-8.94-31.5a21,21,0,0,1,.52-2.18h0c3.19-10.79,14-15.49,18.86-17.65,5.22-2.31,9.69-3.91,9.69-3.91q1,0.71,1.92,1.32h0C143.15,187.6,150.87,186.31,150.87,186.31Z" transform="translate(-30.25 -91.26)" style="fill-rule:evenodd;fill:url(#Áåçûìÿííûé_ãðàäèåíò_320)"/><path d="M145.92,318.11v3.95c-8.85,2.38-19.6,0-19.6,0a49.32,49.32,0,0,0,.13-7.19,14.56,14.56,0,0,1-.13-3.47,29.79,29.79,0,0,1,1.43-6.63c1.68,2.34,2-.39,4.51-1.87a5.81,5.81,0,0,1,4.47-.82,23.11,23.11,0,0,0,3.05,10l0.2,0.32A15.34,15.34,0,0,0,145.92,318.11Z" transform="translate(-30.25 -91.26)" style="fill-rule:evenodd;fill:url(#Áåçûìÿííûé_ãðàäèåíò_327)"/><path d="M161,117.36s-0.81-2-2.13-2.38-3.68,1.89-5.23,4.34Z" transform="translate(-30.25 -91.26)" style="fill:#de676c"/><path d="M153.83,121a11.22,11.22,0,0,0,3.44,2.61c1.9,0.83,2.81-.2,2.81-0.2a4.48,4.48,0,0,1-2.49-.37A24.85,24.85,0,0,1,153.83,121Z" transform="translate(-30.25 -91.26)" style="fill:#de676c"/><path d="M161.24,120.84s1.58-3.77-.29-4.46c-2.22-.81-6.76,1.55-7.84,3.64Z" transform="translate(-30.25 -91.26)" style="fill:#6b2430"/><path d="M159.93,123.5a3.55,3.55,0,0,1-1.81-.23,12.35,12.35,0,0,1-1.5-.6h0c-0.39-.19-0.78-0.38-1.15-0.58s-0.84-.49-1.19-0.73c-0.8-.56-1.31-1.06-1.16-1.34a6.17,6.17,0,0,1,2-1.65,12.31,12.31,0,0,1,1.24-.65h0a5.27,5.27,0,0,1,3.51-.59C161.91,117.83,161.52,123,159.93,123.5Z" transform="translate(-30.25 -91.26)" style="fill:#e4dbff"/><path d="M161.27,118.53s-2.85-1.09-5.53,3.66c0,0,2.65,2,4.18,1.32C159.93,123.5,162.14,122.75,161.27,118.53Z" transform="translate(-30.25 -91.26)" style="fill:#6b2430"/><path d="M171.32,120s0.15-2.31-.78-2.33-3.22,5.32-3.22,5.32Z" transform="translate(-30.25 -91.26)" style="fill:#de676c"/><path d="M167.32,124.24a3.62,3.62,0,0,0,1.8,1c0.85,0,.93-1.78.93-1.78a2.43,2.43,0,0,1-1.06,1.29A2.37,2.37,0,0,1,167.32,124.24Z" transform="translate(-30.25 -91.26)" style="fill:#de676c"/><path d="M126.17,185.28s-13.68,3.68-19.08,15.9,13.28,49.3,13.82,52.55-4.23,11-3.87,16.65,5.18,17,5.18,17-4.36-11.76-4.38-18.05c0-6.87,3.07-10.6,3.53-15.45,0.38-4-17.2-38.4-13.3-51.8s17.65-15.78,17.65-15.78Z" transform="translate(-30.25 -91.26)" style="fill:#91a0e0;fill-rule:evenodd"/><path d="M113.72,192.66s8.53-3,11.8-4.1l-0.19,1.33s-6,1.54-12.3,3.47Z" transform="translate(-30.25 -91.26)" style="fill:#91a0e0;fill-rule:evenodd"/><path d="M167.39,122.81s1.88-3.82,3.71-4c2.06-.25-1,4.67-1,4.67Z" transform="translate(-30.25 -91.26)" style="fill:#6b2430"/><path d="M169.13,124.88l-0.12,0a2,2,0,0,1-1.15-.25h0a2.31,2.31,0,0,1-.36-0.24h0a0.78,0.78,0,0,1-.36-0.65,3.31,3.31,0,0,1,.14-0.6,6.6,6.6,0,0,1,1.35-2.26,7.86,7.86,0,0,1,.74-0.76c0.81-.71,1.56-1.06,1.7-0.62C171.38,120.46,169.75,124.65,169.13,124.88Z" transform="translate(-30.25 -91.26)" style="fill:#e4dbff"/><path d="M171,120.69a5.8,5.8,0,0,0-3.67,3.55s1,1.06,1.81.63C170.53,124.16,171,120.69,171,120.69Z" transform="translate(-30.25 -91.26)" style="fill:#6b2430"/><path d="M176.22,162.22a25,25,0,0,1-2.22-2.13s-9.75,5.21-8.8,15.3l2.57,1.8S170.89,167.57,176.22,162.22Z" transform="translate(-30.25 -91.26)" style="fill-rule:evenodd;fill:url(#Áåçûìÿííûé_ãðàäèåíò_357)"/><circle cx="126.92" cy="28.93" r="0.54" style="fill:#fff"/><ellipse cx="168.68" cy="122.12" rx="0.54" ry="0.27" transform="translate(-19.2 166.96) rotate(-76.71)" style="fill:#fff"/><path d="M138.07,205.06a18.52,18.52,0,0,1-4.77,2.63s1.78,7.32.73,19.21-2.77,20.64-2.7,23.24S130,258,130,258c-0.6,10.4,5,34.25,5,34.25-5.73,1.91-9.71,0-9.71,0a56.24,56.24,0,0,1-8.58-19c-2.26-10.41,2.81-13.57,2.59-19.3-0.1-2.45-3.51-9.69-7.19-18.13,0.57,1.18,10.39,17.48,11.37,19.13,1.34,2.25,4.85,2.43,5.55,1.13s1.62-7.52,1.48-14.77-8-44.19-15.27-45.9-11.41,6.36-11.57,6.67c3.19-10.79,14-15.49,18.86-17.65,5.22-2.31,9.69-3.91,9.69-3.91q1,0.71,1.92,1.32h0l5.84,5.2Z" transform="translate(-30.25 -91.26)" style="fill:#7c0477;fill-rule:evenodd;opacity:0.4;mix-blend-mode:multiply"/><path d="M167.86,124.66a28.27,28.27,0,0,1,1.66,2.75c0.12,0.44-1.83,1.81-2.74,1.7a4.17,4.17,0,0,1-1.76-1,2.52,2.52,0,0,0-.76-0.14c-0.11,0-1.22-1.19-.47-2.08a1,1,0,0,0,.19,1c0.39,0.33,1.87,0,3.18.32s2,0.67,2.17.46S167.86,124.66,167.86,124.66Z" transform="translate(-30.25 -91.26)" style="opacity:0.58;mix-blend-mode:multiply;fill:url(#Áåçûìÿííûé_ãðàäèåíò_133-12)"/><path d="M164.26,127.93a2.71,2.71,0,0,1,1.44.69S164.87,127.5,164.26,127.93Z" transform="translate(-30.25 -91.26)" style="fill:#a64a4c;fill-rule:evenodd"/><path d="M164.09,125.47a2.14,2.14,0,0,0,0,2.34A1.39,1.39,0,0,1,164.09,125.47Z" transform="translate(-30.25 -91.26)" style="fill-rule:evenodd;opacity:0.58;mix-blend-mode:multiply;fill:url(#Áåçûìÿííûé_ãðàäèåíò_133-13)"/><path d="M164.83,127a9.62,9.62,0,0,1,2.29.54c1.31,0.47,2,.3,2.22.09a4.41,4.41,0,0,1-1.92-.39A5.38,5.38,0,0,0,164.83,127Z" transform="translate(-30.25 -91.26)" style="fill-rule:evenodd;opacity:0.30000000000000004;mix-blend-mode:multiply;fill:url(#Áåçûìÿííûé_ãðàäèåíò_133-14)"/><path d="M165.46,126.42c-0.23-.19.43-0.4,0.87-0.17s0.55,0.36.52,0.45A2.33,2.33,0,0,1,165.46,126.42Z" transform="translate(-30.25 -91.26)" style="fill:#fff;fill-rule:evenodd;mix-blend-mode:soft-light"/><path d="M159.7,128.62a3.92,3.92,0,0,0,2.88,1.43c1.73,0,4.79,0,4.27,1.29C166.85,131.34,163.65,132.88,159.7,128.62Z" transform="translate(-30.25 -91.26)" style="fill:#a63b4c;fill-rule:evenodd"/><path d="M160.08,129s0.49,3.53,2.29,4.72,3.77-.36,4.36-2.28C166.73,131.41,163.53,132.73,160.08,129Z" transform="translate(-30.25 -91.26)" style="fill:#d34c4c;fill-rule:evenodd"/><path d="M159.33,128.22s2,2.69,4.31,3.32a4.62,4.62,0,0,0,3.67-.33,7,7,0,0,1-3.87,0A11.24,11.24,0,0,1,159.33,128.22Z" transform="translate(-30.25 -91.26)" style="fill:#7c2f38;fill-rule:evenodd"/><path d="M145.47,120.79s-1.57-3.32-4.12-4.2a4.18,4.18,0,0,0-2.92,1.55c-1.22,2-.45,6.14,1.44,8.31s5.31,1.86,5.88.84S145.47,120.79,145.47,120.79Z" transform="translate(-30.25 -91.26)" style="fill:url(#Áåçûìÿííûé_ãðàäèåíò_2-2)"/><path d="M145.11,124s-3.65-6.25-5.17-6.07-1.63,3.23-1.44,4.93a6,6,0,0,0,1.94,3.18,7,7,0,0,1-1.62-3.32,4.07,4.07,0,0,1,.92-3.21,2.94,2.94,0,0,1,2,1.11c0,0.34-.74,1.61-0.61,2.86a2.91,2.91,0,0,0,2.37,2.06c0.31-.16,0-1.91.26-2.06A3,3,0,0,1,145.11,124Z" transform="translate(-30.25 -91.26)" style="fill-rule:evenodd;opacity:0.58;mix-blend-mode:multiply;fill:url(#Áåçûìÿííûé_ãðàäèåíò_133-15)"/><path d="M142.55,120.19a6.07,6.07,0,0,0-1.21,3.2,2.24,2.24,0,0,0,2,1.95c0.35-.1.18-1.72,0.38-2a1.66,1.66,0,0,1,1.11.13S143.12,120.9,142.55,120.19Z" transform="translate(-30.25 -91.26)" style="fill-rule:evenodd;opacity:0.58;mix-blend-mode:multiply;fill:url(#Áåçûìÿííûé_ãðàäèåíò_133-16)"/><path d="M170.37,123.67a5.49,5.49,0,0,0,.26,2.09s-3.39-.69-3.5-2,1.47-6,2-7a27.9,27.9,0,0,1,3.83-3.64C172.89,116.79,170.53,121.3,170.37,123.67Z" transform="translate(-30.25 -91.26)" style="fill-rule:evenodd;opacity:0.58;mix-blend-mode:multiply;fill:url(#Áåçûìÿííûé_ãðàäèåíò_133-17)"/><path d="M173,113.13c-0.06-.45-1-7.22-5.84-8.67-7.25-2.16-11,6.21-11,6.21s5.29-.87,6.75-0.63c0,0-.27,12.77-2.42,14.29s-7-2.53-8.39-2.66-2.76,6.89-1.56,9.55c1.13,2.5,7.28,5.69,10.26,6.56a14.07,14.07,0,0,1-3-.92c-3.39-1.41-8.93-3.84-11-7.83l1.74-19.58,7.42-7c5.17-1.27,10.68-.25,12.6.92s4,5,4.46,8.81A9.36,9.36,0,0,1,173,113.13Z" transform="translate(-30.25 -91.26)" style="fill-rule:evenodd;opacity:0.58;mix-blend-mode:multiply;fill:url(#Áåçûìÿííûé_ãðàäèåíò_133-18)"/><path d="M148.86,131.76s9.29,6.34,14.07,6.11C162.92,137.87,157.19,138.81,148.86,131.76Z" transform="translate(-30.25 -91.26)" style="fill:#c95e4c;fill-rule:evenodd"/><path d="M147.29,134.37s3.07,3.62,6.67,4.16c0,0-.1-2.4,0-3.18,0,0-4.81-2.84-6.15-4.7Z" transform="translate(-30.25 -91.26)" style="fill:#862043;fill-rule:evenodd"/><path d="M171.1,106.53a7.45,7.45,0,0,0-3.59-3c-2.43-.91-9.43-3.6-15.75,4,0,0,2.88-9.87,11.17-10.43a12.16,12.16,0,0,1,4.85,4.36C169.84,104.62,170.5,104.58,171.1,106.53Z" transform="translate(-30.25 -91.26)" style="fill:#591527"/><path d="M131.59,247s10.21-2.48,16-.72l0.51-1.69-15-9.23Z" transform="translate(-30.25 -91.26)" style="fill:#600445;fill-rule:evenodd;opacity:0.4;mix-blend-mode:multiply"/><path d="M145.09,103.62s-3.24,6.88-1.56,13.18c0,0-.51-9.93,6.37-15.7C149.9,101.11,146.67,101.89,145.09,103.62Z" transform="translate(-30.25 -91.26)" style="fill:#ffae00;fill-rule:evenodd"/><path d="M143.76,107.52s-4.37,2.14-5.93,8.54,1.36,17.84,1.36,17.84-1.93-8.36-.76-15,4.92-9.5,4.92-9.5Z" transform="translate(-30.25 -91.26)" style="fill:#fff;fill-rule:evenodd;opacity:0.5;mix-blend-mode:soft-light"/><path d="M186.11,109.18a12.34,12.34,0,0,1-6.08.74c-3.74-.56-7.74-4.12-7.74-4.12h0a39.22,39.22,0,0,1-4.51-4.35,3.74,3.74,0,0,1,1,.06c-0.19-.94-0.62-3.8.33-5.87-0.11.38-.65,2.42-0.18,3.09s1.59-1.71,1.92-1.7,0.24,2.35.24,2.35a13.5,13.5,0,0,1,3.79-4,24.51,24.51,0,0,1,6-2.92l0,0h0c-0.53.34-4.52,2-6.32,3.68s-4,6.16-4,6.16a4,4,0,0,1,.8.87,9.44,9.44,0,0,1,2.13-1.74,2.69,2.69,0,0,0-1.14,1.16c-0.14.58,3.12,0.74,4.22,1.85s-2.92.38-3.32,0.65,3.2,4.32,7.66,4.65A13.06,13.06,0,0,0,186.11,109.18Z" transform="translate(-30.25 -91.26)" style="fill-rule:evenodd;opacity:0.58;mix-blend-mode:multiply;fill:url(#Áåçûìÿííûé_ãðàäèåíò_337)"/><path d="M187.37,108.58a3.9,3.9,0,0,1-.61.33l0.19-.1h0Z" transform="translate(-30.25 -91.26)" style="fill-rule:evenodd;opacity:0.58;mix-blend-mode:multiply;fill:url(#Áåçûìÿííûé_ãðàäèåíò_337-2)"/><path d="M121.46,145.6s5.16,12.45,3.79,22.65l3.25-3s2.33-13.36-1.61-21.13C126.9,144.18,122.9,145.82,121.46,145.6Z" transform="translate(-30.25 -91.26)" style="fill-rule:evenodd;fill:url(#Áåçûìÿííûé_ãðàäèåíò_367)"/><path d="M162.92,164c0.69-3.65-1.65-11-1.65-11a9.6,9.6,0,0,1-6.06,3.94c3.32-2.23,5.43-7,5.43-7-1.91-5-4.75-7-4.75-7,0,0.21,0,3.8-2.81,2.62s-7.36-7.83-7.36-7.83a2.83,2.83,0,0,0,.38-0.43h0.67a9.8,9.8,0,0,0,5,4.6c3.39,1.24,3.23-.56,3.23-0.56l-0.52-1a26.64,26.64,0,0,0,5.81,4.74h0c1.65,4.17,4.74,17.36,4.74,17.36Z" transform="translate(-30.25 -91.26)" style="fill:#900477;fill-rule:evenodd;opacity:0.4;mix-blend-mode:multiply"/><path d="M154.17,146.9c-3.58-.26-8.45-7.32-8.45-7.32v-1.8l0.36-.39,0,0h0.67a9.75,9.75,0,0,0,5,4.59c3.39,1.24,3.23-.56,3.23-0.56l-0.52-1,0.05,0.06,0.71,0.74,0.14,0.14h0S157.75,147.16,154.17,146.9Z" transform="translate(-30.25 -91.26)" style="fill-rule:evenodd;fill:url(#Áåçûìÿííûé_ãðàäèåíò_357-2)"/><path d="M141.72,137.53s2.14,2.26,2.54,3.91,1.13,6.46,1.13,6.46a32.2,32.2,0,0,0,9.51,2.77c5.09,0.57,6.81-4.65,6.81-4.65l-0.7-.42a2.58,2.58,0,0,0-2.54-1.61l-4-3.56a11.61,11.61,0,0,1-.5-5.08,29.18,29.18,0,0,1-6.37-5,61.85,61.85,0,0,1-.8,7h-0.67l-0.38.43a1.84,1.84,0,0,1-1,.47A13,13,0,0,0,141.72,137.53Z" transform="translate(-30.25 -91.26)" style="fill:#3b0477;fill-rule:evenodd;opacity:0.61;mix-blend-mode:multiply"/><path d="M148.44,171.92l-13.52,8.65-0.34-1.86,0.34,0.11c1.56-4,1-18.34,1-18.34-3,.32-10.26,7.35-10.71,7.78,2.53-3.47,10.47-9.17,10.47-9.17a1.66,1.66,0,0,0,0-1.56c-1.95.56-9.62,8.88-9.62,8.88a83.68,83.68,0,0,1,8.59-11.35c4.46-4.73,8-14.83,7.46-16.21s-2.23-1.1-2.52-1.06h0a4.55,4.55,0,0,1,2.18-.26h0.14a9.42,9.42,0,0,1,1.52.29l0.22,0.07a7,7,0,0,1,.72.24l0.08,0s0.57,19.7.72,19.89S148.44,171.92,148.44,171.92Z" transform="translate(-30.25 -91.26)" style="fill:#900477;fill-rule:evenodd;opacity:0.4;mix-blend-mode:multiply"/><path d="M175.57,161.71s-6-.13-7.79-0.91-2.79-4.62-2.79-4.62,0.54,5.17,1.68,7S175.57,161.71,175.57,161.71Z" transform="translate(-30.25 -91.26)" style="fill:#900477;fill-rule:evenodd;opacity:0.4;mix-blend-mode:multiply"/><path d="M167.38,176.31a2.12,2.12,0,0,1-.56.47c-2.19,1.43-9.47,4-10.33,4.43a7.34,7.34,0,0,0-3.56,5.09s0,0.08,0,.21a5.19,5.19,0,0,0,0,.57c0,3.27,9,41,8.27,46.09s-12.62,13.65-17.64,11.6-14.11-8.74-17.44-30.73,1-32.21,1.41-32.38a10.44,10.44,0,0,1,1.11-.27h0c1.22-.26,3-0.59,3-0.59a10.07,10.07,0,0,1,.93-2.41,0.5,0.5,0,0,1,.3-0.23,8.07,8.07,0,0,1,2.15.65s6.91-5.81,7.56-7.46,1.9-33.18,1.9-33.18a2,2,0,0,1,1.33-.39s-0.85,16.54.06,19.16c0.61,1.77,5.11,4.89,8.57,6.74l0.12,0.07a11.78,11.78,0,0,0,3.62,1.46,7,7,0,0,0,3.78-.84,3.15,3.15,0,0,0,1.44-1.55c0.3-.91-0.78-9.72-2-13.5a13,13,0,0,0-2.86-5.32A2.39,2.39,0,0,1,161,145.6s7,22.67,7.18,24.59S168.22,175.07,167.38,176.31Z" transform="translate(-30.25 -91.26)" style="fill-rule:evenodd;fill:url(#Áåçûìÿííûé_ãðàäèåíò_153-11)"/><path d="M136,160.47l3.45-.54S138,165.07,136,170.67v-10.2Z" transform="translate(-30.25 -91.26)" style="fill:#600456;fill-rule:evenodd;opacity:0.4;mix-blend-mode:multiply"/><path d="M167.38,176.31l-0.56.47c-2.19,1.43-9.47,4-10.33,4.43a7.34,7.34,0,0,0-3.56,5.09s0,0.08,0,.21c-0.17,1.28-1.15,8.06-3.14,11.41a22,22,0,0,0,.58-7s-5.4,6.57-7,7-10.1-6.85-14.19-11.62a47.81,47.81,0,0,0-1,14.92,61.65,61.65,0,0,0,4.06,15c-0.36-.64-6.29-11-6.34-20.22,0-9.5,2.64-14.58,2.64-14.58h0c1.22-.26,3-0.59,3-0.59a10.07,10.07,0,0,1,.93-2.41l0.3-.23s-0.39,1.56.91,5.4a13,13,0,0,0,4,5.85c-0.12-.28-2.75-6.65-2.75-10.59,0,0,6.91-5.81,7.56-7.46l9.9,1.17-7.72,1.81-0.91.58,12.91,0.39-1.87-1.56S163.13,177,167.38,176.31Z" transform="translate(-30.25 -91.26)" style="fill:#7c0477;fill-rule:evenodd;opacity:0.4;mix-blend-mode:multiply"/><path d="M155.55,208.83s-0.39,16.71-1.89,23.54-5.92,9-5.92,9,6.18-3.12,8.58-7.74S155.55,208.83,155.55,208.83Z" transform="translate(-30.25 -91.26)" style="fill:#900477;fill-rule:evenodd;opacity:0.4;mix-blend-mode:multiply"/><path d="M160.31,165.81l1.26,1.22c-2.35-.51-6.37-2.84-7.1-3.27a11.78,11.78,0,0,0,3.62,1.46,7,7,0,0,0,3.78-.84Z" transform="translate(-30.25 -91.26)" style="fill:#751b74;fill-rule:evenodd;opacity:0.36"/><path d="M125.95,260.71s2.24-2.64,3.19-4a27.41,27.41,0,0,0,2.14-5.29s-0.59,5-1.32,6.6A6.23,6.23,0,0,1,125.95,260.71Z" transform="translate(-30.25 -91.26)" style="fill:#7c0477;fill-rule:evenodd;opacity:0.4;mix-blend-mode:multiply"/><path d="M121.8,147.26s2.14,7.36,1.68,11.86l1.55-.26s-1.55-8-3-11.7Z" transform="translate(-30.25 -91.26)" style="fill:#862043;fill-rule:evenodd"/><path d="M172,175.47s1.18-9.23,3.94-12.52l-0.24-.26a39.59,39.59,0,0,0-6.09,9.87A35,35,0,0,0,172,175.47Z" transform="translate(-30.25 -91.26)" style="fill:#862043;fill-rule:evenodd"/><path d="M134.93,178.82s4-5.21,5.59-9.11,3.33-19,3.33-19-0.81,18.43-1.36,20.68S134.93,178.82,134.93,178.82Z" transform="translate(-30.25 -91.26)" style="fill:#600456;fill-rule:evenodd;opacity:0.4;mix-blend-mode:multiply"/><path d="M126.47,319.64s13.85,1.83,19.44-.17v2.59a36.47,36.47,0,0,1-19.6,0Z" transform="translate(-30.25 -91.26)" style="fill:#ffded6;fill-rule:evenodd"/><path d="M139.78,312.07c-0.71-1.09-3.23-4.61-6.48-4.93-3.86-.38-6.85,7.73-6.85,7.73a14.56,14.56,0,0,1-.13-3.47,29.79,29.79,0,0,1,1.43-6.63c1.68,2.34,2-.39,4.51-1.87a5.81,5.81,0,0,1,4.47-.82A23.11,23.11,0,0,0,139.78,312.07Z" transform="translate(-30.25 -91.26)" style="fill:#7c4c9a;fill-rule:evenodd;opacity:0.4;mix-blend-mode:multiply"/><path d="M140,201.51A34.4,34.4,0,0,0,151.8,203a12.18,12.18,0,0,1-5.14,1.43C143.9,204.5,140,201.51,140,201.51Z" transform="translate(-30.25 -91.26)" style="fill:#7c0477;fill-rule:evenodd;opacity:0.4;mix-blend-mode:multiply"/><path d="M138.62,200.86s5.64,2.81,7.71,3.07,5.47-.93,5.47-0.93,0.72,10.31.63,13.19c0,1.11-6.25,4.47-7.65,4.3s-6.44-5.74-7-7.77S138.62,200.86,138.62,200.86Z" transform="translate(-30.25 -91.26)" style="fill:#817c2a;fill-rule:evenodd"/><path d="M152.44,216.2s-4.78,4.28-7.39,3.45-6.07-5.59-6.5-8.54,0.08-10.25.08-10.25-2.16,8.82-2.33,11.68,5.31,10,8.07,10.49S152.19,217.17,152.44,216.2Z" transform="translate(-30.25 -91.26)" style="fill:#900477;fill-rule:evenodd;opacity:0.4;mix-blend-mode:multiply"/><path d="M162.92,97.09a16.21,16.21,0,0,0-10.19,8.22c-0.11.22-.23,0.45-0.34,0.68-3.57,7.5-3.12,23.44-3.95,25.23,0,0-3.69,4.54-6.55,5.08a2.28,2.28,0,0,1-1.31-.1s3-3.16,3-11.06c0-3.67-.46-9.12.4-14v0a16.82,16.82,0,0,1,2.47-6.65,12.73,12.73,0,0,1,2.74-2.84,25.43,25.43,0,0,1,9.36-4.37,10.66,10.66,0,0,1,3.73-.36h0.07a1.4,1.4,0,0,1,.49.16Z" transform="translate(-30.25 -91.26)" style="fill:url(#Áåçûìÿííûé_ãðàäèåíò_290-3)"/><path d="M169.33,103.63c-3,.27-5.54-4.42-16.6,1.67-0.11.22-.23,0.45-0.34,0.68-3.57,7.5-3.12,23.44-3.95,25.23,0,0-3.69,4.54-6.55,5.08a13.79,13.79,0,0,1-6.08.38s3.69-.39,3.38-2.77-4.47-11.75-4.34-19c0-.41,0-0.79.06-1.16h0s0.82,11,3.51,13.68c3.34,3.29,2.9.44,3.46-4.11,0.33-2.68,1.24-12.17,1.24-12.17H144v0c0,0.61.05,13.5-.4,19.54,0,0,.52-1.18,1.32-3.12a0,0,0,0,0,0,0c0.65-1.57,1.47-3.61,2.34-5.94,1.78-4.73,2.31-10.76,3.91-15.49,0.17-.5.35-1,0.55-1.46,2.05-4.89,10.18-8.09,11.17-7.54C163.2,97.24,166.13,98.89,169.33,103.63Z" transform="translate(-30.25 -91.26)" style="fill:#680463;fill-rule:evenodd;opacity:0.4;mix-blend-mode:multiply"/><path d="M148.44,131.22s-4.36,4.11-9.62,3.2c0,0,1.56,2.16,3.43,2.17S146.46,134.78,148.44,131.22Z" transform="translate(-30.25 -91.26)" style="fill:#a24d39"/><path d="M143.51,119.32S151,102.05,155.91,100a23.25,23.25,0,0,1,4.5-2.39s-8.21.37-16.39,15.59Z" transform="translate(-30.25 -91.26)" style="fill:#fff;fill-rule:evenodd;opacity:0.5;mix-blend-mode:soft-light"/><path d="M145.61,137.79l0.49-.43-0.38.43h-0.11Z" transform="translate(-30.25 -91.26)" style="fill:#752874;fill-rule:evenodd"/><path d="M193.91,141c-0.48,0-.82-0.08-0.91-0.1-0.43-.1-0.46-0.72,0-1a2,2,0,0,1,.57-0.17Z" transform="translate(-30.25 -91.26)" style="fill:#752874;fill-rule:evenodd"/><path d="M170.53,125.38a5.31,5.31,0,0,1-.16-1.71,1.13,1.13,0,0,1,0-.15l0.05-.14A6.19,6.19,0,0,0,170.53,125.38Z" transform="translate(-30.25 -91.26)" style="fill:#752874;fill-rule:evenodd"/><path d="M126.17,199.13s1,20.66,5.1,29.59,16.37-35,22.9-34.22l0.15,0.69a80,80,0,0,1-1.45-8.09s-1.35,8-3.11,10.81a32.53,32.53,0,0,0,.58-7s-5,6.59-7,7-14.19-11.63-14.19-11.63-4.19,15.23,3,29.8C131.68,215.15,127.25,207.16,126.17,199.13Z" transform="translate(-30.25 -91.26)" style="fill:#cfcb56;fill-rule:evenodd"/><path d="M169.13,98.87c0.87,0.19,1.31-2.08,1.73-1.84s0.24,2.35.24,2.35,4-6.27,9.76-7a18.41,18.41,0,0,0-5.9-1.12c-1.35.21-4.64,1.78-5.83,4.29h0a0.06,0.06,0,0,1,0,0,0.14,0.14,0,0,0,0,.06C169,96.14,168.34,98.68,169.13,98.87Z" transform="translate(-30.25 -91.26)" style="fill:#cf6556;fill-rule:evenodd"/><path d="M176.51,104.45c0.49,0.83-2.87.07-3.31,0.65s2.28,4,7.66,4.65a12,12,0,0,0,3.76-.11h0a12.22,12.22,0,0,0,1.48-.46l0.16-.06,0.22-.09,0.46-.22-0.2.11a4.24,4.24,0,0,0,.61-0.33l0,0a2.92,2.92,0,0,0,1.34-1.36,12.75,12.75,0,0,1-6.16-2.34c-2.95-2.17-8.41-3.68-9.15-3.43h0c-0.13.09-1.29,1-.84,1.4S176,103.62,176.51,104.45Z" transform="translate(-30.25 -91.26)" style="fill:#cf6556;fill-rule:evenodd"/><path d="M144.67,174.34l-0.91.57,12.91,0.39-1.85-1.54c0.51,0.16,9.34,3,12.56,2.55,0,0,2.32-2.93-.46-11.56a52.27,52.27,0,0,1-2.37-16.84s-0.18-.15-0.62-0.45-1.16-.78-2.23-1.43l-0.14-.09-0.3-.18-0.26-.15a2.38,2.38,0,0,0-2.53-1.61l0,0-4-3.51c0.07,0.27.7,2.58-1.14,2.46s-6.56-5.56-6.56-5.56h-0.66l-0.49.42h0l-0.51.44-0.69-.07s-1.44,29.18-1.92,33.2l9.9,1.17Z" transform="translate(-30.25 -91.26)" style="fill:#cfcb56;fill-rule:evenodd"/><path d="M128.61,317.77c0.87,1.07,15.49,1.21,17.31.35,0,0-4.64-3.78-6.14-6.05,0,0-4.9-6.56-8.44-4.42S127.75,316.69,128.61,317.77Z" transform="translate(-30.25 -91.26)" style="fill:#cf6556;fill-rule:evenodd;opacity:0.46"/><path d="M130.81,154.5c0.72,0.61,6.57,3.37,11.32-14.93,0.27-1.07-5.82,1.75-8.75,5.2S130.1,153.88,130.81,154.5Z" transform="translate(-30.25 -91.26)" style="fill:#cfcb56;fill-rule:evenodd"/><path d="M196.93,134.78a6.81,6.81,0,0,0,.13,1.2,7.12,7.12,0,0,0,.17,1.21,13.73,13.73,0,0,0,1.25,2.09,5.47,5.47,0,0,0,1.82,1.64,14.12,14.12,0,0,0,2.31.85,7.22,7.22,0,0,0,1.23.07,7.12,7.12,0,0,0,1.22-.11,6.92,6.92,0,0,0,1.13-.47,6.83,6.83,0,0,0,1.12-.46,3.11,3.11,0,0,0,1.81-1.59,7,7,0,0,0,.8-0.92,7.17,7.17,0,0,0,.64-1.07,7.25,7.25,0,0,0,.24-1.22,9.65,9.65,0,0,0,0-2.45,6.94,6.94,0,0,0-.47-1.13,6.94,6.94,0,0,0-.42-1.14,4.35,4.35,0,0,0-1.58-1.83,7.33,7.33,0,0,0-3.26-1.58,7.06,7.06,0,0,0-1.22-.06,6.85,6.85,0,0,0-1.2.17,7.55,7.55,0,0,0-1.24.09,7.24,7.24,0,0,0-1,.71,6.86,6.86,0,0,0-1,.69,7.29,7.29,0,0,0-1,.74,7.36,7.36,0,0,0-.53,1.12A7.4,7.4,0,0,0,196.93,134.78Z" transform="translate(-30.25 -91.26)" style="fill:#f5ba18"/><path d="M209.28,139.06l-0.45-.28a6.61,6.61,0,0,0-2.25-.89,7.06,7.06,0,0,0-1.22-.06,6.85,6.85,0,0,0-1.2.17,7.55,7.55,0,0,0-1.24.09,7.24,7.24,0,0,0-1,.71,6.86,6.86,0,0,0-1,.69,7.29,7.29,0,0,0-1,.74,1.36,1.36,0,0,0-.19.3,6.44,6.44,0,0,0,.59.39,14.12,14.12,0,0,0,2.31.85,7.22,7.22,0,0,0,1.23.07,7.12,7.12,0,0,0,1.22-.11,6.92,6.92,0,0,0,1.13-.47,6.83,6.83,0,0,0,1.12-.46,3.11,3.11,0,0,0,1.81-1.59Z" transform="translate(-30.25 -91.26)" style="fill:#f59b18"/><path d="M207.88,139.33a6.51,6.51,0,0,1-1.06.44,6.69,6.69,0,0,1-1.15.1,6.79,6.79,0,0,1-1.16-.06,13.28,13.28,0,0,1-2.17-.8,5.14,5.14,0,0,1-1.71-1.54,12.91,12.91,0,0,1-1.18-2,6.69,6.69,0,0,1-.16-1.14A6.25,6.25,0,0,1,200,130a6.19,6.19,0,0,0,.29-0.69,6.06,6.06,0,0,0-.67.49,6.86,6.86,0,0,0-.93.7,6.92,6.92,0,0,0-.5,1.05,6.07,6.07,0,0,0-.76,4.37,6.69,6.69,0,0,0,.16,1.14,12.91,12.91,0,0,0,1.18,2,5.14,5.14,0,0,0,1.71,1.54,13.28,13.28,0,0,0,2.17.8,6.79,6.79,0,0,0,1.16.06,6.69,6.69,0,0,0,1.15-.1,6.51,6.51,0,0,0,1.06-.44,6.42,6.42,0,0,0,1.05-.43,6.69,6.69,0,0,0,1-.57,6.35,6.35,0,0,0,.69-0.91A8.1,8.1,0,0,1,207.88,139.33Z" transform="translate(-30.25 -91.26)" style="fill:#f59b18"/><path d="M202.91,129.3l0.07,0h0l0,0h0l0,0h0l0,0h0l0,0v-0.06h0a0.19,0.19,0,0,0,0-.06h0a0.16,0.16,0,0,0,0,0h0a0.2,0.2,0,0,0-.1-0.12h0l0,0h0a0.86,0.86,0,0,0-.36-0.06,0.9,0.9,0,0,0-.63.27c-0.12.15,0,.25,0.21,0.29h0.5Z" transform="translate(-30.25 -91.26)" style="fill:#f59b18"/><path d="M204.74,129.33H205l0.06,0h0l0.06,0,0,0,0,0,0,0,0,0,0,0h0a0.25,0.25,0,0,0,0-.08h0a0.22,0.22,0,0,0,0,0h0a0.27,0.27,0,0,0-.09-0.19h0a1,1,0,0,0-.5-0.22,1.2,1.2,0,0,0-.89.19c-0.19.16-.05,0.32,0.2,0.43h0l0.07,0h0l0.06,0h0.61Z" transform="translate(-30.25 -91.26)" style="fill:#f59b18"/><path d="M204.63,130.18a0.25,0.25,0,0,0,0-.08h0a0.22,0.22,0,0,0,0,0h0a0.27,0.27,0,0,0-.09-0.19h0a1,1,0,0,0-.5-0.22,1.2,1.2,0,0,0-.89.19c-0.19.16-.05,0.32,0.2,0.43h0l0.07,0h0l0.06,0h0.83l0.06,0h0l0.06,0,0,0,0,0,0,0,0,0,0,0h0Z" transform="translate(-30.25 -91.26)" style="fill:#f59b18"/><path d="M201.7,129.71l0,0,0,0v0l0-.06v-0.05s0,0,0,0a0.23,0.23,0,0,0,0-.07h0a0.42,0.42,0,0,0-.3-0.21,1.07,1.07,0,0,0-.77.11,2.27,2.27,0,0,1-.52.23h0l0,0h0v0h0v0h0a0.16,0.16,0,0,0,0,0,0.45,0.45,0,0,0,.44.13,2.65,2.65,0,0,1,.68.07h0.22l0.05,0h0l0,0h0l0,0,0,0,0,0Z" transform="translate(-30.25 -91.26)" style="fill:#f59b18"/><path d="M202.75,130.23h0l-0.07-.05h0a0.61,0.61,0,0,0-.3-0.07,0.69,0.69,0,0,0-.52.27,0.15,0.15,0,0,0,.06.24h0l0,0H202l0.13,0h0.31l0.06,0,0.08,0h0l0.07,0h0l0.05-.05h0l0-.06h0a0.23,0.23,0,0,0,0-.07h0A0.19,0.19,0,0,0,202.75,130.23Z" transform="translate(-30.25 -91.26)" style="fill:#f59b18"/><path d="M200.63,130.5a0.43,0.43,0,0,0-.5.32c-0.1.39-.66,0.61-0.55,0.86a0.75,0.75,0,0,0,.94.23,2.45,2.45,0,0,0,.94-0.57,0.39,0.39,0,0,0-.21-0.58A0.7,0.7,0,0,0,200.63,130.5Z" transform="translate(-30.25 -91.26)" style="fill:#f59b18"/><path d="M199.32,130.84h0.13l0.06,0,0.08,0h0l0.07,0h0l0.05-.05h0l0-.06h0a0.23,0.23,0,0,0,0-.07h0a0.19,0.19,0,0,0,0-.13h0a0.48,0.48,0,0,0-.37-0.12,0.69,0.69,0,0,0-.52.27,0.19,0.19,0,0,0,0,.11h0a0.16,0.16,0,0,0,.1.14h0l0,0h0.37Z" transform="translate(-30.25 -91.26)" style="fill:#f59b18"/><path d="M208.72,130.57l0-.06h0v0h0a0.19,0.19,0,0,0,0-.1h0l0,0h0l0,0h0a0.61,0.61,0,0,0-.28-0.13,0.69,0.69,0,0,0-.57.14,0.15,0.15,0,0,0,0,.25h0l0,0h0l0,0h0l0,0h0l0.08,0h0.51l0,0h0l0,0h0l0,0,0,0,0,0v0h0Z" transform="translate(-30.25 -91.26)" style="fill:#f59b18"/><path d="M206.47,130l0.06,0,0.19,0.1,0.07,0,0.19,0.06h0.17l0.1,0,0.07-.06,0,0V130.1a0.16,0.16,0,0,0,0,0v0a4.4,4.4,0,0,1-.55-0.74,0.43,0.43,0,0,0-.5-0.32,0.7,0.7,0,0,0-.62.27,0.54,0.54,0,0,0-.2.16h0l0,0v0l0,0.05v0a0.35,0.35,0,0,0,0,.06v0a0.47,0.47,0,0,0,0,.08v0l0,0.09a0.27,0.27,0,0,0,.24.14h0.52A0.54,0.54,0,0,1,206.47,130Z" transform="translate(-30.25 -91.26)" style="fill:#f59b18"/><path d="M208.1,131.24v0h0v0h0l0,0h0a2.27,2.27,0,0,1-.52-0.23,1.07,1.07,0,0,0-.77-0.11,0.42,0.42,0,0,0-.3.21h0a0.23,0.23,0,0,0,0,.07s0,0,0,0v0.05l0,0.06v0l0,0,0,0,0,0,0,0,0,0,0,0h0l0,0h0l0.05,0H207l0.24,0a1.36,1.36,0,0,0,.88-0.15,0.16,0.16,0,0,0,0,0h0Z" transform="translate(-30.25 -91.26)" style="fill:#f59b18"/><path d="M206,130.38a0.69,0.69,0,0,0-.52-0.27,0.61,0.61,0,0,0-.3.07h0l-0.07.05h0a0.19,0.19,0,0,0,0,.13h0a0.23,0.23,0,0,0,0,.07h0l0,0.06h0l0.05,0.05h0l0.07,0h0l0.08,0h0l0.06,0h0.5l0,0h0a0.16,0.16,0,0,0,.1-0.14h0A0.19,0.19,0,0,0,206,130.38Z" transform="translate(-30.25 -91.26)" style="fill:#f59b18"/><path d="M200.63,130.26a0.43,0.43,0,0,0-.5.32c-0.1.39-.66,0.61-0.55,0.86a0.75,0.75,0,0,0,.94.23,2.45,2.45,0,0,0,.94-0.57,0.39,0.39,0,0,0-.21-0.58A0.7,0.7,0,0,0,200.63,130.26Z" transform="translate(-30.25 -91.26)" style="fill:#fbe5ba"/><path d="M201.46,130.69a0.58,0.58,0,0,1-.05.19,2.35,2.35,0,0,1-.92.55,1,1,0,0,1-.9-0.14,0.17,0.17,0,0,0,0,.14,0.75,0.75,0,0,0,.94.23,2.45,2.45,0,0,0,.94-0.57A0.39,0.39,0,0,0,201.46,130.69Z" transform="translate(-30.25 -91.26)" style="fill:#f4d095"/><path d="M202.74,128.5a0.9,0.9,0,0,0-.63.27c-0.21.27,0.36,0.38,0.79,0.28S203.44,128.5,202.74,128.5Z" transform="translate(-30.25 -91.26)" style="fill:#5eb52c"/><path d="M203.1,128.56a0.38,0.38,0,0,1-.34.3,1.31,1.31,0,0,1-.68,0c-0.05.21,0.45,0.29,0.83,0.2S203.37,128.69,203.1,128.56Z" transform="translate(-30.25 -91.26)" style="fill:#4f991f"/><path d="M204.66,128.33a1.2,1.2,0,0,0-.89.19c-0.34.29,0.38,0.59,1,.57S205.57,128.51,204.66,128.33Z" transform="translate(-30.25 -91.26)" style="fill:#5eb52c"/><path d="M205.11,128.5a0.51,0.51,0,0,1-.52.31,1.75,1.75,0,0,1-.89-0.2c-0.13.26,0.51,0.5,1,.48S205.44,128.74,205.11,128.5Z" transform="translate(-30.25 -91.26)" style="fill:#4f991f"/><path d="M204.07,129.39a1.2,1.2,0,0,0-.89.19c-0.34.29,0.38,0.59,1,.57S205,129.57,204.07,129.39Z" transform="translate(-30.25 -91.26)" style="fill:#5eb52c"/><path d="M204.52,129.56a0.51,0.51,0,0,1-.52.31,1.75,1.75,0,0,1-.89-0.2c-0.13.26,0.51,0.5,1,.48S204.84,129.8,204.52,129.56Z" transform="translate(-30.25 -91.26)" style="fill:#4f991f"/><path d="M201.46,129a1.07,1.07,0,0,0-.77.11c-0.28.22-.62,0.15-0.57,0.36s0.74,0.07,1.12.2S202.1,129.15,201.46,129Z" transform="translate(-30.25 -91.26)" style="fill:#fbe5ba"/><path d="M201.24,129.44c-0.33-.11-0.89,0-1.07-0.13a0.11,0.11,0,0,0-.05.13c0,0.21.74,0.07,1.12,0.2a0.41,0.41,0,0,0,.51-0.46A0.44,0.44,0,0,1,201.24,129.44Z" transform="translate(-30.25 -91.26)" style="fill:#f4d095"/><path d="M202.38,129.86a0.69,0.69,0,0,0-.52.27c-0.17.27,0.3,0.38,0.66,0.28S203,129.86,202.38,129.86Z" transform="translate(-30.25 -91.26)" style="fill:#fbe5ba"/><path d="M202.68,129.92a0.33,0.33,0,0,1-.28.33,0.91,0.91,0,0,1-.58,0c0,0.19.39,0.26,0.7,0.17S202.9,130.05,202.68,129.92Z" transform="translate(-30.25 -91.26)" style="fill:#f4d095"/><path d="M199.38,130a0.69,0.69,0,0,0-.52.27c-0.17.27,0.3,0.38,0.66,0.28S200,130,199.38,130Z" transform="translate(-30.25 -91.26)" style="fill:#fbe5ba"/><path d="M199.68,130.07a0.33,0.33,0,0,1-.28.33,0.91,0.91,0,0,1-.58,0c0,0.19.39,0.26,0.7,0.17S199.9,130.2,199.68,130.07Z" transform="translate(-30.25 -91.26)" style="fill:#f4d095"/><path d="M208.4,129.91a0.69,0.69,0,0,0-.57.14c-0.23.22,0.21,0.44,0.58,0.42S209,130,208.4,129.91Z" transform="translate(-30.25 -91.26)" style="fill:#fbe5ba"/><path d="M208.68,130a0.33,0.33,0,0,1-.35.26,0.91,0.91,0,0,1-.56-0.16c0,0.18.32,0.34,0.64,0.33S208.86,130.22,208.68,130Z" transform="translate(-30.25 -91.26)" style="fill:#f4d095"/><path d="M206.29,128.73a0.43,0.43,0,0,1,.5.32c0.1,0.39.66,0.61,0.55,0.86s-0.58.09-.87-0.11-0.88.07-1-.22a0.39,0.39,0,0,1,.21-0.58A0.7,0.7,0,0,1,206.29,128.73Z" transform="translate(-30.25 -91.26)" style="fill:#fbe5ba"/><path d="M205.46,129.16a0.58,0.58,0,0,0,.05.19c0.13,0.29.72,0,1,.22a0.9,0.9,0,0,0,.81.19,0.17,0.17,0,0,1,0,.14c-0.11.24-.58,0.09-0.87-0.11s-0.88.07-1-.22A0.39,0.39,0,0,1,205.46,129.16Z" transform="translate(-30.25 -91.26)" style="fill:#f4d095"/><path d="M206.76,130.57a1.07,1.07,0,0,1,.77.11c0.28,0.22.62,0.15,0.57,0.36s-0.74.07-1.12,0.2S206.11,130.75,206.76,130.57Z" transform="translate(-30.25 -91.26)" style="fill:#fbe5ba"/><path d="M207,131c0.33-.11.89,0,1.07-0.13a0.11,0.11,0,0,1,.05.13c0,0.21-.74.07-1.12,0.2a0.41,0.41,0,0,1-.51-0.46A0.44,0.44,0,0,0,207,131Z" transform="translate(-30.25 -91.26)" style="fill:#f4d095"/><path d="M205.44,129.86a0.69,0.69,0,0,1,.52.27c0.17,0.27-.3.38-0.66,0.28S204.86,129.86,205.44,129.86Z" transform="translate(-30.25 -91.26)" style="fill:#fbe5ba"/><path d="M205.13,129.92a0.33,0.33,0,0,0,.28.33,0.91,0.91,0,0,0,.58,0c0,0.19-.39.26-0.7,0.17S204.91,130.05,205.13,129.92Z" transform="translate(-30.25 -91.26)" style="fill:#f4d095"/><path d="M209.93,135.79s0.67-2.67-.83-3.84S209.28,133.47,209.93,135.79Z" transform="translate(-30.25 -91.26)" style="fill:#f5cf18"/></g></g></svg>